<svg xmlns="http://www.w3.org/2000/svg" viewBox="0 0 800 800">
  <defs>
    <linearGradient id="a" x1="50%" x2="50%" y1="0%" y2="100%" gradientTransform="rotate(270)">
      <stop offset="0%" stop-color="hsla(0, 100%, 50%, 1.00)"/>
      <stop offset="100%" stop-color="hsla(0, 0%, 0%, 1.00)"/>
    </linearGradient>
  </defs>
  <g fill="none" stroke="url(#a)" stroke-linecap="round" stroke-width="1.5" transform="translate(-5 13.405)">
    <path d="M10 10c25.694 1.667 69.861 14.25 123.333 8 53.473-6.25 77.778-41.958 133.334-38C322.222-16.042 344.444 33.667 400 37c55.556 3.333 77.778-38.292 133.333-41 55.556-2.708 77.778 32.167 133.334 28C722.222 19.833 772.222-14 800-24M10 770c25.694 1.667 69.861 14.25 123.333 8 53.473-6.25 77.778-41.958 133.334-38 55.555 3.958 77.777 53.667 133.333 57 55.556 3.333 77.778-38.292 133.333-41 55.556-2.708 77.778 32.167 133.334 28 55.555-4.167 105.555-38 133.333-48"/>
    <path d="M10 730c25.694 1.667 69.861 14.25 123.333 8 53.473-6.25 77.778-41.958 133.334-38 55.555 3.958 77.777 53.667 133.333 57 55.556 3.333 77.778-38.292 133.333-41 55.556-2.708 77.778 32.167 133.334 28 55.555-4.167 105.555-38 133.333-48"/>
    <path d="M10 690c25.694 1.667 69.861 14.25 123.333 8 53.473-6.25 77.778-41.958 133.334-38 55.555 3.958 77.777 53.667 133.333 57 55.556 3.333 77.778-38.292 133.333-41 55.556-2.708 77.778 32.167 133.334 28 55.555-4.167 105.555-38 133.333-48"/>
    <path d="M10 650c25.694 1.667 69.861 14.25 123.333 8 53.473-6.25 77.778-41.958 133.334-38 55.555 3.958 77.777 53.667 133.333 57 55.556 3.333 77.778-38.292 133.333-41 55.556-2.708 77.778 32.167 133.334 28 55.555-4.167 105.555-38 133.333-48"/>
    <path d="M10 610c25.694 1.667 69.861 14.25 123.333 8 53.473-6.25 77.778-41.958 133.334-38 55.555 3.958 77.777 53.667 133.333 57 55.556 3.333 77.778-38.292 133.333-41 55.556-2.708 77.778 32.167 133.334 28 55.555-4.167 105.555-38 133.333-48"/>
    <path d="M10 570c25.694 1.667 69.861 14.25 123.333 8 53.473-6.25 77.778-41.958 133.334-38 55.555 3.958 77.777 53.667 133.333 57 55.556 3.333 77.778-38.292 133.333-41 55.556-2.708 77.778 32.167 133.334 28 55.555-4.167 105.555-38 133.333-48"/>
    <path d="M10 530c25.694 1.667 69.861 14.25 123.333 8 53.473-6.25 77.778-41.958 133.334-38 55.555 3.958 77.777 53.667 133.333 57 55.556 3.333 77.778-38.292 133.333-41 55.556-2.708 77.778 32.167 133.334 28 55.555-4.167 105.555-38 133.333-48"/>
    <path d="M10 490c25.694 1.667 69.861 14.25 123.333 8 53.473-6.25 77.778-41.958 133.334-38 55.555 3.958 77.777 53.667 133.333 57 55.556 3.333 77.778-38.292 133.333-41 55.556-2.708 77.778 32.167 133.334 28 55.555-4.167 105.555-38 133.333-48"/>
    <path d="M10 450c25.694 1.667 69.861 14.25 123.333 8 53.473-6.25 77.778-41.958 133.334-38 55.555 3.958 77.777 53.667 133.333 57 55.556 3.333 77.778-38.292 133.333-41 55.556-2.708 77.778 32.167 133.334 28 55.555-4.167 105.555-38 133.333-48"/>
    <path d="M10 410c25.694 1.667 69.861 14.25 123.333 8 53.473-6.25 77.778-41.958 133.334-38 55.555 3.958 77.777 53.667 133.333 57 55.556 3.333 77.778-38.292 133.333-41 55.556-2.708 77.778 32.167 133.334 28 55.555-4.167 105.555-38 133.333-48"/>
    <path d="M10 370c25.694 1.667 69.861 14.25 123.333 8 53.473-6.25 77.778-41.958 133.334-38 55.555 3.958 77.777 53.667 133.333 57 55.556 3.333 77.778-38.292 133.333-41 55.556-2.708 77.778 32.167 133.334 28 55.555-4.167 105.555-38 133.333-48"/>
    <path d="M10 330c25.694 1.667 69.861 14.25 123.333 8 53.473-6.25 77.778-41.958 133.334-38 55.555 3.958 77.777 53.667 133.333 57 55.556 3.333 77.778-38.292 133.333-41 55.556-2.708 77.778 32.167 133.334 28 55.555-4.167 105.555-38 133.333-48"/>
    <path d="M10 290c25.694 1.667 69.861 14.25 123.333 8 53.473-6.25 77.778-41.958 133.334-38 55.555 3.958 77.777 53.667 133.333 57 55.556 3.333 77.778-38.292 133.333-41 55.556-2.708 77.778 32.167 133.334 28 55.555-4.167 105.555-38 133.333-48"/>
    <path d="M10 250c25.694 1.667 69.861 14.25 123.333 8 53.473-6.25 77.778-41.958 133.334-38 55.555 3.958 77.777 53.667 133.333 57 55.556 3.333 77.778-38.292 133.333-41 55.556-2.708 77.778 32.167 133.334 28 55.555-4.167 105.555-38 133.333-48"/>
    <path d="M10 210c25.694 1.667 69.861 14.25 123.333 8 53.473-6.25 77.778-41.958 133.334-38 55.555 3.958 77.777 53.667 133.333 57 55.556 3.333 77.778-38.292 133.333-41 55.556-2.708 77.778 32.167 133.334 28 55.555-4.167 105.555-38 133.333-48"/>
    <path d="M10 170c25.694 1.667 69.861 14.25 123.333 8 53.473-6.25 77.778-41.958 133.334-38 55.555 3.958 77.777 53.667 133.333 57 55.556 3.333 77.778-38.292 133.333-41 55.556-2.708 77.778 32.167 133.334 28 55.555-4.167 105.555-38 133.333-48"/>
    <path d="M10 130c25.694 1.667 69.861 14.25 123.333 8 53.473-6.25 77.778-41.958 133.334-38 55.555 3.958 77.777 53.667 133.333 57 55.556 3.333 77.778-38.292 133.333-41 55.556-2.708 77.778 32.167 133.334 28 55.555-4.167 105.555-38 133.333-48"/>
    <path d="M10 90c25.694 1.667 69.861 14.25 123.333 8 53.473-6.25 77.778-41.958 133.334-38 55.555 3.958 77.777 53.667 133.333 57 55.556 3.333 77.778-38.292 133.333-41 55.556-2.708 77.778 32.167 133.334 28C722.222 99.833 772.222 66 800 56"/>
    <path d="M10 50c25.694 1.667 69.861 14.25 123.333 8 53.473-6.25 77.778-41.958 133.334-38C322.222 23.958 344.444 73.667 400 77c55.556 3.333 77.778-38.292 133.333-41 55.556-2.708 77.778 32.167 133.334 28C722.222 59.833 772.222 26 800 16"/>
  </g>
</svg>