<?xml version="1.0" standalone="no"?><svg xmlns:xlink="http://www.w3.org/1999/xlink" xmlns="http://www.w3.org/2000/svg" viewBox="0 0 1000 1000" preserveAspectRatio="xMaxYMax slice"><g transform="scale(2.544529262086514)"><rect x="0" y="0" width="393" height="393" fill="#000000"/><rect x="71.45" y="35.73" width="35.73" height="35.73" fill="#000000"/><g transform="translate(71.45,35.73) scale(1.7864999999999998) rotate(0)"><path fill-rule="evenodd" clip-rule="evenodd" d="M10 20C15.5228 20 20 15.5228 20 10C20 4.47715 15.5228 0 10 0C4.47715 0 0 4.47715 0 10C0 15.5228 4.47715 20 10 20ZM10 17C13.866 17 17 13.866 17 10C17 6.13401 13.866 3 10 3C6.13401 3 3 6.13401 3 10C3 13.866 6.13401 17 10 17Z" fill="#070f11"/></g><rect x="214.36" y="35.73" width="35.73" height="35.73" fill="#18373f"/><g transform="translate(214.36,35.73) scale(1.7864999999999998) rotate(0)"><path fill-rule="evenodd" clip-rule="evenodd" d="M10 20C15.5228 20 20 15.5228 20 10C20 4.47715 15.5228 0 10 0C4.47715 0 0 4.47715 0 10C0 15.5228 4.47715 20 10 20ZM10 17C13.866 17 17 13.866 17 10C17 6.13401 13.866 3 10 3C6.13401 3 3 6.13401 3 10C3 13.866 6.13401 17 10 17Z" fill="#000000"/></g><rect x="107.18" y="71.45" width="35.73" height="35.73" fill="#132b31"/><path d="M 107.18 71.45 A 35.73 35.73 0 0 1  142.91 107.18 L 107.18 71.45 A 35.73 35.73 0 0 0 142.91 107.18" fill="#000000"/><rect x="214.36363636363637" y="71.45454545454545" width="35.72727272727273" height="35.72727272727273" fill="#000000"/><rect x="214.36" y="89.32" width="17.86" height="17.86" fill="#2d6574"/><path d="M 214.36 89.32 A 17.86 17.86 0 0 1  232.22000000000003 107.17999999999999 L 214.36 89.32 A 17.86 17.86 0 0 0 232.22000000000003 107.17999999999999" fill="#377c8d"/><rect x="232.23" y="89.32" width="17.86" height="17.86" fill="#010101"/><path d="M 232.23 107.17999999999999 A 17.86 17.86 0 0 1  250.08999999999997 89.32 L 232.23 107.17999999999999 A 17.86 17.86 0 0 0 250.08999999999997 89.32" fill="#000000"/><rect x="250.09" y="71.45" width="35.73" height="35.73" fill="#000000"/><path d="M 250.09 107.18 A 35.73 35.73 0 0 1  285.82 71.45 L 250.09 107.18 A 35.73 35.73 0 0 0 285.82 71.45" fill="#000000"/><rect x="285.8181818181818" y="71.45454545454545" width="35.72727272727273" height="35.72727272727273" fill="#000000"/><rect x="285.82" y="89.32" width="17.86" height="17.86" fill="#000000"/><g transform="translate(285.82,89.32) scale(0.893) rotate(0)"><path fill-rule="evenodd" clip-rule="evenodd" d="M10 20C15.5228 20 20 15.5228 20 10C20 4.47715 15.5228 0 10 0C4.47715 0 0 4.47715 0 10C0 15.5228 4.47715 20 10 20ZM10 17C13.866 17 17 13.866 17 10C17 6.13401 13.866 3 10 3C6.13401 3 3 6.13401 3 10C3 13.866 6.13401 17 10 17Z" fill="#48a2b9"/></g><rect x="303.68" y="89.32" width="17.86" height="17.86" fill="#2c6371"/><g transform="translate(303.68,89.32) scale(0.893) rotate(0)"><path fill-rule="evenodd" clip-rule="evenodd" d="M10 20C15.5228 20 20 15.5228 20 10C20 4.47715 15.5228 0 10 0C4.47715 0 0 4.47715 0 10C0 15.5228 4.47715 20 10 20ZM10 17C13.866 17 17 13.866 17 10C17 6.13401 13.866 3 10 3C6.13401 3 3 6.13401 3 10C3 13.866 6.13401 17 10 17Z" fill="#214b55"/></g><rect x="357.27" y="71.45" width="35.73" height="35.73" fill="#000000"/><g transform="translate(357.27,71.45) scale(1.7864999999999998) rotate(0)"><path fill-rule="evenodd" clip-rule="evenodd" d="M10 20C15.5228 20 20 15.5228 20 10C20 4.47715 15.5228 0 10 0C4.47715 0 0 4.47715 0 10C0 15.5228 4.47715 20 10 20ZM10 17C13.866 17 17 13.866 17 10C17 6.13401 13.866 3 10 3C6.13401 3 3 6.13401 3 10C3 13.866 6.13401 17 10 17Z" fill="#3d8a9e"/></g><rect x="142.91" y="107.18" width="35.73" height="35.73" fill="#387f91"/><g transform="translate(142.91,107.18) scale(1.7864999999999998) rotate(0)"><path fill-rule="evenodd" clip-rule="evenodd" d="M10 20C15.5228 20 20 15.5228 20 10C20 4.47715 15.5228 0 10 0C4.47715 0 0 4.47715 0 10C0 15.5228 4.47715 20 10 20ZM10 17C13.866 17 17 13.866 17 10C17 6.13401 13.866 3 10 3C6.13401 3 3 6.13401 3 10C3 13.866 6.13401 17 10 17Z" fill="#3c879a"/></g><rect x="178.63636363636363" y="107.18181818181819" width="35.72727272727273" height="35.72727272727273" fill="#000000"/><rect x="178.64" y="107.18" width="17.86" height="17.86" fill="#4397ac"/><g transform="translate(178.64,107.18) scale(0.893) rotate(0)"><path fill-rule="evenodd" clip-rule="evenodd" d="M10 20C15.5228 20 20 15.5228 20 10C20 4.47715 15.5228 0 10 0C4.47715 0 0 4.47715 0 10C0 15.5228 4.47715 20 10 20ZM10 17C13.866 17 17 13.866 17 10C17 6.13401 13.866 3 10 3C6.13401 3 3 6.13401 3 10C3 13.866 6.13401 17 10 17Z" fill="#000000"/></g><rect x="196.5" y="107.18" width="17.86" height="17.86" fill="#398294"/><path d="M 196.5 125.04 A 17.86 17.86 0 0 1  214.36 107.18 L 196.5 125.04 A 17.86 17.86 0 0 0 214.36 107.18" fill="#3c879a"/><rect x="196.5" y="125.05" width="17.86" height="17.86" fill="#193840"/><path d="M 196.5 142.91 A 17.86 17.86 0 0 1  214.36 125.05 L 196.5 142.91 A 17.86 17.86 0 0 0 214.36 125.05" fill="#285a67"/><rect x="214.36" y="107.18" width="35.73" height="35.73" fill="#000000"/><path d="M 214.36 107.18 A 35.73 35.73 0 0 1  250.09 142.91 L 214.36 107.18 A 35.73 35.73 0 0 0 250.09 142.91" fill="#000000"/><rect x="71.45" y="142.91" width="35.73" height="35.73" fill="#153036"/><g transform="translate(71.45,142.91) scale(1.7864999999999998) rotate(0)"><path fill-rule="evenodd" clip-rule="evenodd" d="M10 20C15.5228 20 20 15.5228 20 10C20 4.47715 15.5228 0 10 0C4.47715 0 0 4.47715 0 10C0 15.5228 4.47715 20 10 20ZM10 17C13.866 17 17 13.866 17 10C17 6.13401 13.866 3 10 3C6.13401 3 3 6.13401 3 10C3 13.866 6.13401 17 10 17Z" fill="#3e8c9f"/></g><rect x="107.18" y="142.91" width="35.73" height="35.73" fill="#000000"/><g transform="translate(107.18,142.91) scale(1.7864999999999998) rotate(0)"><path fill-rule="evenodd" clip-rule="evenodd" d="M10 20C15.5228 20 20 15.5228 20 10C20 4.47715 15.5228 0 10 0C4.47715 0 0 4.47715 0 10C0 15.5228 4.47715 20 10 20ZM10 17C13.866 17 17 13.866 17 10C17 6.13401 13.866 3 10 3C6.13401 3 3 6.13401 3 10C3 13.866 6.13401 17 10 17Z" fill="#1b3e47"/></g><rect x="142.91" y="142.91" width="35.73" height="35.73" fill="#000000"/><g transform="translate(142.91,142.91) scale(1.7864999999999998) rotate(0)"><path fill-rule="evenodd" clip-rule="evenodd" d="M10 20C15.5228 20 20 15.5228 20 10C20 4.47715 15.5228 0 10 0C4.47715 0 0 4.47715 0 10C0 15.5228 4.47715 20 10 20ZM10 17C13.866 17 17 13.866 17 10C17 6.13401 13.866 3 10 3C6.13401 3 3 6.13401 3 10C3 13.866 6.13401 17 10 17Z" fill="#1b3d46"/></g><rect x="178.64" y="142.91" width="35.73" height="35.73" fill="#102429"/><g transform="translate(178.64,142.91) scale(1.7864999999999998) rotate(0)"><path fill-rule="evenodd" clip-rule="evenodd" d="M10 20C15.5228 20 20 15.5228 20 10C20 4.47715 15.5228 0 10 0C4.47715 0 0 4.47715 0 10C0 15.5228 4.47715 20 10 20ZM10 17C13.866 17 17 13.866 17 10C17 6.13401 13.866 3 10 3C6.13401 3 3 6.13401 3 10C3 13.866 6.13401 17 10 17Z" fill="#25545f"/></g><rect x="214.36" y="142.91" width="35.73" height="35.73" fill="#091417"/><g transform="translate(214.36,142.91) scale(1.7864999999999998) rotate(0)"><path fill-rule="evenodd" clip-rule="evenodd" d="M10 20C15.5228 20 20 15.5228 20 10C20 4.47715 15.5228 0 10 0C4.47715 0 0 4.47715 0 10C0 15.5228 4.47715 20 10 20ZM10 17C13.866 17 17 13.866 17 10C17 6.13401 13.866 3 10 3C6.13401 3 3 6.13401 3 10C3 13.866 6.13401 17 10 17Z" fill="#000000"/></g><rect x="250.09" y="142.91" width="35.73" height="35.73" fill="#122a30"/><path d="M 250.09 178.64 A 35.73 35.73 0 0 1  285.82 142.91 L 250.09 178.64 A 35.73 35.73 0 0 0 285.82 142.91" fill="#152f36"/><rect x="321.55" y="142.91" width="35.73" height="35.73" fill="#000000"/><path d="M 321.55 142.91 A 35.73 35.73 0 0 1  357.28000000000003 178.64 L 321.55 142.91 A 35.73 35.73 0 0 0 357.28000000000003 178.64" fill="#050b0c"/><rect x="357.27" y="142.91" width="35.73" height="35.73" fill="#000000"/><path d="M 357.27 178.64 A 35.73 35.73 0 0 1  393 142.91 L 357.27 178.64 A 35.73 35.73 0 0 0 393 142.91" fill="#000000"/><rect x="142.91" y="178.64" width="35.73" height="35.73" fill="#0e1f24"/><g transform="translate(142.91,178.64) scale(1.7864999999999998) rotate(0)"><path fill-rule="evenodd" clip-rule="evenodd" d="M10 20C15.5228 20 20 15.5228 20 10C20 4.47715 15.5228 0 10 0C4.47715 0 0 4.47715 0 10C0 15.5228 4.47715 20 10 20ZM10 17C13.866 17 17 13.866 17 10C17 6.13401 13.866 3 10 3C6.13401 3 3 6.13401 3 10C3 13.866 6.13401 17 10 17Z" fill="#000000"/></g><rect x="178.64" y="178.64" width="35.73" height="35.73" fill="#000000"/><g transform="translate(178.64,178.64) scale(1.7864999999999998) rotate(0)"><path fill-rule="evenodd" clip-rule="evenodd" d="M10 20C15.5228 20 20 15.5228 20 10C20 4.47715 15.5228 0 10 0C4.47715 0 0 4.47715 0 10C0 15.5228 4.47715 20 10 20ZM10 17C13.866 17 17 13.866 17 10C17 6.13401 13.866 3 10 3C6.13401 3 3 6.13401 3 10C3 13.866 6.13401 17 10 17Z" fill="#214a55"/></g><rect x="214.36" y="178.64" width="35.73" height="35.73" fill="#000000"/><g transform="translate(214.36,178.64) scale(1.7864999999999998) rotate(0)"><path fill-rule="evenodd" clip-rule="evenodd" d="M10 20C15.5228 20 20 15.5228 20 10C20 4.47715 15.5228 0 10 0C4.47715 0 0 4.47715 0 10C0 15.5228 4.47715 20 10 20ZM10 17C13.866 17 17 13.866 17 10C17 6.13401 13.866 3 10 3C6.13401 3 3 6.13401 3 10C3 13.866 6.13401 17 10 17Z" fill="#000000"/></g><rect x="250.09" y="178.64" width="35.73" height="35.73" fill="#091316"/><path d="M 250.09 178.64 A 35.73 35.73 0 0 1  285.82 214.36999999999998 L 250.09 178.64 A 35.73 35.73 0 0 0 285.82 214.36999999999998" fill="#000000"/><rect x="285.82" y="178.64" width="35.73" height="35.73" fill="#000000"/><g transform="translate(285.82,178.64) scale(1.7864999999999998) rotate(0)"><path fill-rule="evenodd" clip-rule="evenodd" d="M10 20C15.5228 20 20 15.5228 20 10C20 4.47715 15.5228 0 10 0C4.47715 0 0 4.47715 0 10C0 15.5228 4.47715 20 10 20ZM10 17C13.866 17 17 13.866 17 10C17 6.13401 13.866 3 10 3C6.13401 3 3 6.13401 3 10C3 13.866 6.13401 17 10 17Z" fill="#388092"/></g><rect x="35.72727272727273" y="214.36363636363637" width="35.72727272727273" height="35.72727272727273" fill="#000000"/><rect x="53.59" y="232.23" width="17.86" height="17.86" fill="#000000"/><path d="M 53.59 250.08999999999997 A 17.86 17.86 0 0 1  71.45 232.23 L 53.59 250.08999999999997 A 17.86 17.86 0 0 0 71.45 232.23" fill="#285c69"/><rect x="71.45" y="214.36" width="35.73" height="35.73" fill="#000000"/><g transform="translate(71.45,214.36) scale(1.7864999999999998) rotate(0)"><path fill-rule="evenodd" clip-rule="evenodd" d="M10 20C15.5228 20 20 15.5228 20 10C20 4.47715 15.5228 0 10 0C4.47715 0 0 4.47715 0 10C0 15.5228 4.47715 20 10 20ZM10 17C13.866 17 17 13.866 17 10C17 6.13401 13.866 3 10 3C6.13401 3 3 6.13401 3 10C3 13.866 6.13401 17 10 17Z" fill="#24525d"/></g><rect x="142.9090909090909" y="214.36363636363637" width="35.72727272727273" height="35.72727272727273" fill="#000000"/><rect x="142.91" y="214.36" width="17.86" height="17.86" fill="#132a30"/><path d="M 142.91 232.22000000000003 A 17.86 17.86 0 0 1  160.76999999999998 214.36 L 142.91 232.22000000000003 A 17.86 17.86 0 0 0 160.76999999999998 214.36" fill="#000000"/><rect x="160.77" y="214.36" width="17.86" height="17.86" fill="#153037"/><path d="M 160.77 232.22000000000003 A 17.86 17.86 0 0 1  178.63 214.36 L 160.77 232.22000000000003 A 17.86 17.86 0 0 0 178.63 214.36" fill="#000000"/><rect x="160.77" y="232.23" width="17.86" height="17.86" fill="#4090a4"/><path d="M 160.77 232.23 A 17.86 17.86 0 0 1  178.63 250.08999999999997 L 160.77 232.23 A 17.86 17.86 0 0 0 178.63 250.08999999999997" fill="#000000"/><rect x="178.63636363636363" y="214.36363636363637" width="35.72727272727273" height="35.72727272727273" fill="#000000"/><rect x="178.64" y="214.36" width="17.86" height="17.86" fill="#469eb4"/><g transform="translate(178.64,214.36) scale(0.893) rotate(0)"><path fill-rule="evenodd" clip-rule="evenodd" d="M10 20C15.5228 20 20 15.5228 20 10C20 4.47715 15.5228 0 10 0C4.47715 0 0 4.47715 0 10C0 15.5228 4.47715 20 10 20ZM10 17C13.866 17 17 13.866 17 10C17 6.13401 13.866 3 10 3C6.13401 3 3 6.13401 3 10C3 13.866 6.13401 17 10 17Z" fill="#000000"/></g><rect x="196.5" y="214.36" width="17.86" height="17.86" fill="#3b8497"/><g transform="translate(196.5,214.36) scale(0.893) rotate(0)"><path fill-rule="evenodd" clip-rule="evenodd" d="M10 20C15.5228 20 20 15.5228 20 10C20 4.47715 15.5228 0 10 0C4.47715 0 0 4.47715 0 10C0 15.5228 4.47715 20 10 20ZM10 17C13.866 17 17 13.866 17 10C17 6.13401 13.866 3 10 3C6.13401 3 3 6.13401 3 10C3 13.866 6.13401 17 10 17Z" fill="#000000"/></g><rect x="178.64" y="232.23" width="17.86" height="17.86" fill="#2c6371"/><g transform="translate(178.64,232.23) scale(0.893) rotate(0)"><path fill-rule="evenodd" clip-rule="evenodd" d="M10 20C15.5228 20 20 15.5228 20 10C20 4.47715 15.5228 0 10 0C4.47715 0 0 4.47715 0 10C0 15.5228 4.47715 20 10 20ZM10 17C13.866 17 17 13.866 17 10C17 6.13401 13.866 3 10 3C6.13401 3 3 6.13401 3 10C3 13.866 6.13401 17 10 17Z" fill="#0f2227"/></g><rect x="196.5" y="232.23" width="17.86" height="17.86" fill="#000000"/><g transform="translate(196.5,232.23) scale(0.893) rotate(0)"><path fill-rule="evenodd" clip-rule="evenodd" d="M10 20C15.5228 20 20 15.5228 20 10C20 4.47715 15.5228 0 10 0C4.47715 0 0 4.47715 0 10C0 15.5228 4.47715 20 10 20ZM10 17C13.866 17 17 13.866 17 10C17 6.13401 13.866 3 10 3C6.13401 3 3 6.13401 3 10C3 13.866 6.13401 17 10 17Z" fill="#255561"/></g><rect x="214.36363636363637" y="214.36363636363637" width="35.72727272727273" height="35.72727272727273" fill="#000000"/><rect x="214.36" y="214.36" width="17.86" height="17.86" fill="#000000"/><path d="M 214.36 214.36 A 17.86 17.86 0 0 1  232.22000000000003 232.22000000000003 L 214.36 214.36 A 17.86 17.86 0 0 0 232.22000000000003 232.22000000000003" fill="#000000"/><rect x="232.23" y="214.36" width="17.86" height="17.86" fill="#2e6877"/><g transform="translate(232.23,214.36) scale(0.893) rotate(0)"><path fill-rule="evenodd" clip-rule="evenodd" d="M10 20C15.5228 20 20 15.5228 20 10C20 4.47715 15.5228 0 10 0C4.47715 0 0 4.47715 0 10C0 15.5228 4.47715 20 10 20ZM10 17C13.866 17 17 13.866 17 10C17 6.13401 13.866 3 10 3C6.13401 3 3 6.13401 3 10C3 13.866 6.13401 17 10 17Z" fill="#000000"/></g><rect x="214.36" y="232.23" width="17.86" height="17.86" fill="#000000"/><g transform="translate(214.36,232.23) scale(0.893) rotate(0)"><path fill-rule="evenodd" clip-rule="evenodd" d="M10 20C15.5228 20 20 15.5228 20 10C20 4.47715 15.5228 0 10 0C4.47715 0 0 4.47715 0 10C0 15.5228 4.47715 20 10 20ZM10 17C13.866 17 17 13.866 17 10C17 6.13401 13.866 3 10 3C6.13401 3 3 6.13401 3 10C3 13.866 6.13401 17 10 17Z" fill="#25535f"/></g><rect x="232.23" y="232.23" width="17.86" height="17.86" fill="#2a606d"/><g transform="translate(232.23,232.23) scale(0.893) rotate(0)"><path fill-rule="evenodd" clip-rule="evenodd" d="M10 20C15.5228 20 20 15.5228 20 10C20 4.47715 15.5228 0 10 0C4.47715 0 0 4.47715 0 10C0 15.5228 4.47715 20 10 20ZM10 17C13.866 17 17 13.866 17 10C17 6.13401 13.866 3 10 3C6.13401 3 3 6.13401 3 10C3 13.866 6.13401 17 10 17Z" fill="#000000"/></g><rect x="250.09" y="214.36" width="35.73" height="35.73" fill="#000000"/><g transform="translate(250.09,214.36) scale(1.7864999999999998) rotate(0)"><path fill-rule="evenodd" clip-rule="evenodd" d="M10 20C15.5228 20 20 15.5228 20 10C20 4.47715 15.5228 0 10 0C4.47715 0 0 4.47715 0 10C0 15.5228 4.47715 20 10 20ZM10 17C13.866 17 17 13.866 17 10C17 6.13401 13.866 3 10 3C6.13401 3 3 6.13401 3 10C3 13.866 6.13401 17 10 17Z" fill="#1b3c45"/></g><rect x="321.54545454545456" y="214.36363636363637" width="35.72727272727273" height="35.72727272727273" fill="#000000"/><rect x="339.41" y="214.36" width="17.86" height="17.86" fill="#275966"/><g transform="translate(339.41,214.36) scale(0.893) rotate(0)"><path fill-rule="evenodd" clip-rule="evenodd" d="M10 20C15.5228 20 20 15.5228 20 10C20 4.47715 15.5228 0 10 0C4.47715 0 0 4.47715 0 10C0 15.5228 4.47715 20 10 20ZM10 17C13.866 17 17 13.866 17 10C17 6.13401 13.866 3 10 3C6.13401 3 3 6.13401 3 10C3 13.866 6.13401 17 10 17Z" fill="#000000"/></g><rect x="71.45" y="250.09" width="35.73" height="35.73" fill="#4499af"/><g transform="translate(71.45,250.09) scale(1.7864999999999998) rotate(0)"><path fill-rule="evenodd" clip-rule="evenodd" d="M10 20C15.5228 20 20 15.5228 20 10C20 4.47715 15.5228 0 10 0C4.47715 0 0 4.47715 0 10C0 15.5228 4.47715 20 10 20ZM10 17C13.866 17 17 13.866 17 10C17 6.13401 13.866 3 10 3C6.13401 3 3 6.13401 3 10C3 13.866 6.13401 17 10 17Z" fill="#459cb2"/></g><rect x="142.91" y="250.09" width="35.73" height="35.73" fill="#000000"/><g transform="translate(142.91,250.09) scale(1.7864999999999998) rotate(0)"><path fill-rule="evenodd" clip-rule="evenodd" d="M10 20C15.5228 20 20 15.5228 20 10C20 4.47715 15.5228 0 10 0C4.47715 0 0 4.47715 0 10C0 15.5228 4.47715 20 10 20ZM10 17C13.866 17 17 13.866 17 10C17 6.13401 13.866 3 10 3C6.13401 3 3 6.13401 3 10C3 13.866 6.13401 17 10 17Z" fill="#000000"/></g><rect x="178.64" y="250.09" width="35.73" height="35.73" fill="#000000"/><g transform="translate(178.64,250.09) scale(1.7864999999999998) rotate(0)"><path fill-rule="evenodd" clip-rule="evenodd" d="M10 20C15.5228 20 20 15.5228 20 10C20 4.47715 15.5228 0 10 0C4.47715 0 0 4.47715 0 10C0 15.5228 4.47715 20 10 20ZM10 17C13.866 17 17 13.866 17 10C17 6.13401 13.866 3 10 3C6.13401 3 3 6.13401 3 10C3 13.866 6.13401 17 10 17Z" fill="#3c879a"/></g><rect x="250.09" y="250.09" width="35.73" height="35.73" fill="#060e10"/><path d="M 250.09 285.82 A 35.73 35.73 0 0 1  285.82 250.09 L 250.09 285.82 A 35.73 35.73 0 0 0 285.82 250.09" fill="#316f7f"/><rect x="285.82" y="250.09" width="35.73" height="35.73" fill="#000000"/><path d="M 285.82 285.82 A 35.73 35.73 0 0 1  321.55 250.09 L 285.82 285.82 A 35.73 35.73 0 0 0 321.55 250.09" fill="#000000"/><rect x="107.18" y="285.82" width="35.73" height="35.73" fill="#000000"/><g transform="translate(107.18,285.82) scale(1.7864999999999998) rotate(0)"><path fill-rule="evenodd" clip-rule="evenodd" d="M10 20C15.5228 20 20 15.5228 20 10C20 4.47715 15.5228 0 10 0C4.47715 0 0 4.47715 0 10C0 15.5228 4.47715 20 10 20ZM10 17C13.866 17 17 13.866 17 10C17 6.13401 13.866 3 10 3C6.13401 3 3 6.13401 3 10C3 13.866 6.13401 17 10 17Z" fill="#000000"/></g><rect x="142.9090909090909" y="285.8181818181818" width="35.72727272727273" height="35.72727272727273" fill="#000000"/><rect x="142.91" y="285.82" width="17.86" height="17.86" fill="#000000"/><path d="M 142.91 303.68 A 17.86 17.86 0 0 1  160.76999999999998 285.82 L 142.91 303.68 A 17.86 17.86 0 0 0 160.76999999999998 285.82" fill="#000000"/><rect x="160.77" y="285.82" width="17.86" height="17.86" fill="#000000"/><g transform="translate(160.77,285.82) scale(0.893) rotate(0)"><path fill-rule="evenodd" clip-rule="evenodd" d="M10 20C15.5228 20 20 15.5228 20 10C20 4.47715 15.5228 0 10 0C4.47715 0 0 4.47715 0 10C0 15.5228 4.47715 20 10 20ZM10 17C13.866 17 17 13.866 17 10C17 6.13401 13.866 3 10 3C6.13401 3 3 6.13401 3 10C3 13.866 6.13401 17 10 17Z" fill="#000000"/></g><rect x="160.77" y="303.68" width="17.86" height="17.86" fill="#1c3f48"/><g transform="translate(160.77,303.68) scale(0.893) rotate(0)"><path fill-rule="evenodd" clip-rule="evenodd" d="M10 20C15.5228 20 20 15.5228 20 10C20 4.47715 15.5228 0 10 0C4.47715 0 0 4.47715 0 10C0 15.5228 4.47715 20 10 20ZM10 17C13.866 17 17 13.866 17 10C17 6.13401 13.866 3 10 3C6.13401 3 3 6.13401 3 10C3 13.866 6.13401 17 10 17Z" fill="#2b606e"/></g><rect x="178.63636363636363" y="285.8181818181818" width="35.72727272727273" height="35.72727272727273" fill="#000000"/><rect x="178.64" y="285.82" width="17.86" height="17.86" fill="#000000"/><g transform="translate(178.64,285.82) scale(0.893) rotate(0)"><path fill-rule="evenodd" clip-rule="evenodd" d="M10 20C15.5228 20 20 15.5228 20 10C20 4.47715 15.5228 0 10 0C4.47715 0 0 4.47715 0 10C0 15.5228 4.47715 20 10 20ZM10 17C13.866 17 17 13.866 17 10C17 6.13401 13.866 3 10 3C6.13401 3 3 6.13401 3 10C3 13.866 6.13401 17 10 17Z" fill="#000000"/></g><rect x="178.64" y="303.68" width="17.86" height="17.86" fill="#000000"/><g transform="translate(178.64,303.68) scale(0.893) rotate(0)"><path fill-rule="evenodd" clip-rule="evenodd" d="M10 20C15.5228 20 20 15.5228 20 10C20 4.47715 15.5228 0 10 0C4.47715 0 0 4.47715 0 10C0 15.5228 4.47715 20 10 20ZM10 17C13.866 17 17 13.866 17 10C17 6.13401 13.866 3 10 3C6.13401 3 3 6.13401 3 10C3 13.866 6.13401 17 10 17Z" fill="#357889"/></g><rect x="196.5" y="303.68" width="17.86" height="17.86" fill="#010303"/><g transform="translate(196.5,303.68) scale(0.893) rotate(0)"><path fill-rule="evenodd" clip-rule="evenodd" d="M10 20C15.5228 20 20 15.5228 20 10C20 4.47715 15.5228 0 10 0C4.47715 0 0 4.47715 0 10C0 15.5228 4.47715 20 10 20ZM10 17C13.866 17 17 13.866 17 10C17 6.13401 13.866 3 10 3C6.13401 3 3 6.13401 3 10C3 13.866 6.13401 17 10 17Z" fill="#000000"/></g><rect x="214.36" y="285.82" width="35.73" height="35.73" fill="#1d424b"/><path d="M 214.36 321.55 A 35.73 35.73 0 0 1  250.09 285.82 L 214.36 321.55 A 35.73 35.73 0 0 0 250.09 285.82" fill="#000000"/><rect x="250.09" y="285.82" width="35.73" height="35.73" fill="#0f2226"/><path d="M 250.09 321.55 A 35.73 35.73 0 0 1  285.82 285.82 L 250.09 321.55 A 35.73 35.73 0 0 0 285.82 285.82" fill="#000000"/><rect x="178.63636363636363" y="321.54545454545456" width="35.72727272727273" height="35.72727272727273" fill="#000000"/><rect x="196.5" y="321.55" width="17.86" height="17.86" fill="#000000"/><g transform="translate(196.5,321.55) scale(0.893) rotate(0)"><path fill-rule="evenodd" clip-rule="evenodd" d="M10 20C15.5228 20 20 15.5228 20 10C20 4.47715 15.5228 0 10 0C4.47715 0 0 4.47715 0 10C0 15.5228 4.47715 20 10 20ZM10 17C13.866 17 17 13.866 17 10C17 6.13401 13.866 3 10 3C6.13401 3 3 6.13401 3 10C3 13.866 6.13401 17 10 17Z" fill="#000000"/></g><rect x="178.64" y="339.41" width="17.86" height="17.86" fill="#000000"/><path d="M 178.64 357.27000000000004 A 17.86 17.86 0 0 1  196.5 339.41 L 178.64 357.27000000000004 A 17.86 17.86 0 0 0 196.5 339.41" fill="#000000"/><rect x="196.5" y="339.41" width="17.86" height="17.86" fill="#3b8699"/><g transform="translate(196.5,339.41) scale(0.893) rotate(0)"><path fill-rule="evenodd" clip-rule="evenodd" d="M10 20C15.5228 20 20 15.5228 20 10C20 4.47715 15.5228 0 10 0C4.47715 0 0 4.47715 0 10C0 15.5228 4.47715 20 10 20ZM10 17C13.866 17 17 13.866 17 10C17 6.13401 13.866 3 10 3C6.13401 3 3 6.13401 3 10C3 13.866 6.13401 17 10 17Z" fill="#000000"/></g><rect x="357.27272727272725" y="321.54545454545456" width="35.72727272727273" height="35.72727272727273" fill="#000000"/></g></svg>