<svg xmlns="http://www.w3.org/2000/svg" version="1.1" xmlns:xlink="http://www.w3.org/1999/xlink" xmlns:svgjs="http://svgjs.dev/svgjs" viewBox="0 0 1422 800" opacity="1"><defs><linearGradient x1="50%" y1="0%" x2="50%" y2="100%" id="ssscribble-grad"><stop stop-color="hsl(30, 100%, 50%)" stop-opacity="1" offset="0%"></stop><stop stop-color="hsl(9, 100%, 26%)" stop-opacity="1" offset="100%"></stop></linearGradient></defs><g fill="none" stroke-width="1.25" stroke="url(#ssscribble-grad)" stroke-linecap="round"><path d="M1156.57 557.81C1139.81 578.06 1165.17 598.22 1224.04 617.81 1301.44 636.82 1374.49 654.13 1424.21 668.53 1439.67 680.82 1415.84 688.4 1359.3 689.92 1282.56 688 1202.52 679.07 1135.24 663.13 1092.28 645.44 1079.93 623.47 1096.69 600.22 1137.93 582.87 1191.4 571.72 1244.94 571.79 1290.58 587.65 1317.26 620.41 1321.1 671.01 1302.34 734.86 1262.78 808.22 1208.46 882.71 1144.16 946.36 1078 991.43 1016.06 1009.1 960.79 997.1 916.99 956.9 885.34 896.81 860.79 808.89 865.53 802.04 879.93 910.72 903.97 1060.91 896.71 863.6 878.44 828.6 864.67 875.03 847.6 960.11 827.35 1054.61 807.11 1124.26 784.17 1142.76 758.51 1105.11 732.54 1025.32 703.3 930.67 670.51 852.2 636.89 813.57 599.25 824.4 557.68 877.22 515.62 955.07 470.42 1030.27 423.34 1079.79 378.52 1090.85 334.99 1058.63 295.57 992.49 263.78 907.28 240.8 823.19 229.51 757.09 229.95 719.34 243.62 714.36 269.92 737.53 302.9 782.5 341.26 835.02 379.03 882.95 406.81 920 421.1 936.54 415.96 931.02 388.21 905.01 338.98 861.61 272.27 807.08 197.65 744.54 124.57 681.69 65.27 623.09 30.45 568.7 26.3 523.15 54.42 486.5 106.86 456.98 173.72 434.85 239.03 417.96 284.15 405.75 298.32 395.72 275.04 385.91 217.51 377.95 138.5 368.16 57.09 355.43 -5.76 343.1 -33.18 327.01 -16.42 306.77 39.4 286.52 118.84 262.6 200 235.51 262.08 208.8 290.18 179.74 279.48 149.52 233.42 121.15 166.68 93.67 97.19 69.15 25.39 42.39 84.05 37.14 190.88 63.95 267.22 89.3 331.15 119.88 374.33 151.22 392.63 174.56 386.54 187.83 361.26 184.89 321.21 161.44 276.98 117.12 236.6 53.54 203.42 -20.91 184.92 -98.7 182.69 -167.58 195.68 -214.67 223.44 -232.24 262.34 -215.58 310.46 -170.57 362.98 -106.1 416.19 -38.94 470.25 9.14 520.53 24.87 565.73 -1 607.77 -65.36 644.11 -153.73 675.35 -243 703.47 -307.26 727.86 -327.78 749.69 -296.97 769.86 -226.34 788.99 -137.65 807.96 -61.84 826.5 -28.18 845.73 -48.7 865.98 -118.34 886.22 -212.83 907 -295.88 927.89 -338.33 948.35 -327.12 968.08 -265.63 986.09 -175.48 1019.24 -58.47 1004.18 -255.67 975.33 -271.39 955.36 -230 935.11 -159.34 918.19 -75.87 910.49 5.3 912.85 68.05 928.82 103.96 960.02 110.19 1006.31 90.39 1066.02 53.28 1132.93 5.32 1202.44 -40.23 1266.39 -75.11 1315.59 -96.75 1344.22 -99.38 1347.01 -84.04 1324.92 -52.9 1280.61 -9.49 1222.33 41.09 1164.87 97.59 1118.74 153.77 1096.37 206.54 1106.45 257.57 1148.82 302.45 1217.44 341.1 1298.35 376.31 1374.76 406.24 1428.64 432.12 1447.16 455.9 1425.04 477.45 1366.97 497.87 1289.82 517.71 1212.43 537.56 1156.59 557.8Q1156.57 557.81 1156.57 557.81" opacity="0.91"></path><path d="M1131.06 518.28C1114.11 537.65 1135.8 553.62 1189.13 566.01 1261.75 578.03 1333.72 585.81 1387.74 588.9 1412.96 591.01 1402.36 587.93 1359.17 579.72 1292.39 571.16 1215.57 558.71 1143.33 544.02 1071.82 528.15 1095.48 534.73 1165.28 573.98 1216.35 617.59 1257.45 673.95 1282.29 740.17 1288.93 808.36 1274.86 874.1 1242.78 928.9 1195.77 964.38 1139.38 976.05 1079.34 960.75 1018.27 923.26 962.21 868.74 913.87 808.67 873.28 759.96 842.52 733.03 820.63 738.33 806.85 778.91 799.44 848.78 796.11 934.55 798.54 1044.91 804.31 1037.31 801.5 924.2 798.7 849.77 791.96 804.91 781.05 806.19 770.11 855.75 755.01 938.82 735.65 1029.15 716.28 1096.68 693.11 1117.88 666.33 1087.3 639.52 1015.66 609.1 925.49 575.38 844.18 541.87 794.32 505.59 788.41 467.44 824.44 430.88 891.28 394.24 966.38 359.37 1028.02 329.15 1061.55 303.84 1056.34 285.81 1014.62 275.9 945.28 275.8 863.61 286.54 785.85 305.04 724.04 332.28 688.24 365.64 680.36 397.97 698.98 427.78 735.83 449.4 780.97 456.1 828.41 446.01 866.46 416.5 889.59 368.8 896.95 306.13 885.79 234.9 858.84 165.32 818.45 105.78 769.29 66.05 716.17 52.47 659.73 67.67 605.76 109.5 556.53 167.55 510.15 231.76 470.15 287.61 436.15 319.87 405.73 321.22 379.98 288.53 357.56 227.04 337.13 149.37 318.25 72.92 299.85 15.77 281.99 -7.88 263.56 9.06 244.2 61.83 224.83 137.02 204.99 215.56 185.13 278.98 165.81 313.16 147.52 312.18 131.43 277.05 117.33 218.73 107.22 152.06 102.5 69.62 104.17 76.81 146.09 163.86 181.36 237.49 202.68 308.23 220.98 366.51 231.52 406.41 228.62 424.26 210.96 421.36 175.9 399.63 125.06 366.2 60.42 328.06 -12.39 288.4 -82.91 255.72 -143.94 233.82 -185.42 222.73 -200.41 225.55 -186.17 240.98 -144.52 267.34 -86.92 302.56 -24.02 343.41 28.04 389.42 52.49 436.48 41.92 482.36 -5.79 528.59 -81.63 571.42 -169.34 610.23 -247.11 647.68 -294.06 681.08 -297.4 710.74 -255.02 739.32 -181.18 764.97 -96.7 788.18 -28.9 811.04 -2.15 832.09 -25.31 851.45 -92.84 870.82 -183.17 888.04 -264.28 902.9 -310.01 917.41 -307.45 928.93 -256.89 936.87 -174.99 920.06 -113.74 867.01 -213.42 868.3 -121.7 882.72 -41.47 908.71 34.6 947.51 94.96 997.11 133.12 1056.37 145.63 1121.42 135.52 1184.94 106.11 1242.54 66.95 1287.14 26.47 1312.92 -12.03 1316.64 -39.57 1296.91 -53.33 1258.79 -54.16 1206.82 -40.46 1150.46 -14.99 1103.39 20.51 1073.74 62.46 1070.26 107.28 1097.01 155.52 1150.86 202.37 1223.59 246.07 1301.19 289.41 1368.76 328.36 1411.38 362.77 1419.85 396.2 1391.38 425.58 1331.8 451.28 1257.1 476.61 1183.86 498.91 1131.08 518.27Q1131.06 518.28 1131.06 518.28" opacity="0.71"></path><path d="M1105.59 411.61C1088.52 430.09 1106.72 443.88 1154.59 453.13 1222.09 462.39 1292.03 467.18 1348.93 467.89 1382.4 469.06 1384.13 467 1354.63 462.86 1299.8 461.12 1229.8 459.77 1157.21 461.07 1092.88 468.56 1046.81 482.39 1023.96 504.97 1025.96 536.88 1049.21 579.15 1087.1 631.55 1134.43 689.69 1180.67 752.51 1218.62 815.03 1245.25 869.48 1254.91 912.05 1247.26 936.55 1223.72 940.02 1186.43 921.22 1139.65 882.14 1085.65 832.13 1029.84 777.84 975.87 730.93 924.09 704.77 878.52 705.48 839.95 737.4 807.3 797.05 781.59 875.14 761.64 956.76 741.04 1042.76 716.34 988.07 705.48 875.35 698.85 809.98 689.97 775.68 678.19 784.7 666.61 836.69 651.72 917.45 633.23 1003.6 614.75 1068.93 593.12 1092.54 568.69 1068.72 544.46 1005.42 517.87 920.86 489.63 838.75 462.4 780.04 434.65 758.83 407.66 777.44 383.38 829.91 361.84 899.16 344.76 966.21 332.68 1016.45 327.15 1035.7 329.45 1020.5 337.67 974.21 353.78 906.03 377.06 829.24 402.55 755.16 430.85 696.31 458.39 659.29 478.73 646.65 490.64 656.68 489.95 683.49 473.37 722.99 440.64 764.95 392.18 802.3 332.41 832.97 265.58 850.18 199.01 853.03 141.88 842.9 100.71 820.02 82.23 787.63 88.59 747.03 119.59 702.33 170.37 656.66 229.42 608.96 287.38 563.77 331.78 522.37 350.85 481.88 340.3 445.84 299.69 414.14 235.66 383.54 160.27 356.59 89.11 332.84 37.59 309.46 17.52 288.59 34.59 270.1 84.35 251.62 155.29 235.95 230.88 223.33 314.52 206.82 293.57 196.02 207.84 203.87 120.04 217.92 80.28 260.14 142.32 277.13 206.5 279.16 276.16 272.58 341.91 254.23 397.25 222.91 435.84 178.18 455.77 121.07 456.75 57.28 442.04 -10.06 416.48 -73.78 382.45 -124.83 347.56 -157.94 316.5 -167.14 289.86 -151.95 273 -113.69 266.79 -58.86 269.81 -1.31 283.03 48.96 304.53 78.77 333.11 77.49 366.64 43.18 402.8 -20.58 442.13 -101.18 481.31 -182.46 518.91 -245.37 557.13 -274.43 592.59 -262.06 624.78 -210.5 656.79 -135.53 685.43 -56.4 710.63 3.24 735.7 23.42 757.53 -2.02 776.02 -67.34 794.5 -153.49 809.2 -232.38 820.13 -280.73 830.93 -286.12 837.77 -246.4 840.63 -173.9 843.29 -87.96 842.08 -11.29 837.39 37.9 833.32 49.36 826.98 23.38 819.68 -30.04 815.55 -98.1 813.26 -161.14 815.03 -204.31 823.89 -219.75 840.13 -202.55 865.59 -157.14 900.3 -90.99 944.66 -16.12 997.76 55.7 1055.26 116.61 1115.53 158.49 1173.79 179.25 1223.58 178.97 1261.37 161.78 1282.2 133.78 1284.1 97.72 1266.1 62.4 1230.01 32.75 1183.5 8.84 1131.76 -3.95 1084.06 -5.52 1051.75 2.24 1040.32 19.65 1054.86 44.19 1095.58 74.93 1157.3 109.11 1230.7 144.38 1302.5 182.06 1360.03 218.36 1391.39 252.05 1390.55 286.2 1356.69 316.88 1296.35 343.63 1224.42 370.38 1155.35 393.12 1105.59 411.61Q1105.59 411.61 1105.59 411.61" opacity="0.29"></path><path d="M1080.09 298.31C1063 315.91 1077.94 330.08 1120.48 341.14 1182.62 352.5 1249.69 361.41 1308.07 368.71 1348.15 377.43 1360.9 386.07 1344.8 396.11 1303.16 409.67 1242.91 426.96 1174.25 449.7 1049.83 511.68 994.33 602.56 1018.41 716.05 1138.73 856.53 1170.96 790.51 1048.25 673.99 945.98 701.16 855.86 823.89 785.62 973.3 755.58 1022.18 730.14 1039.6 708.4 1020.72 689.29 971.14 672.42 901.02 656.78 827.69 642.39 772.18 628.01 748.16 612.96 764.16 598.22 817.95 582.17 896.14 564.57 978.1 546.97 1041.13 528.22 1066.76 508.67 1049.27 489.43 994.33 470.02 916.32 451.21 835.37 408.88 777.96 413.88 992.05 477.96 875.31 514.07 731.04 528.2 633.75 495.64 613.78 411.15 662.7 289.77 734.17 172.61 786.25 111.87 807.94 135.79 785.05 234.4 733.32 290.16 699.49 338.95 663.62 370.66 627.74 376.83 590.15 355.66 554.56 308.79 521.95 243.62 489.13 171.37 459.84 105.75 434.39 59.72 408.99 43 387.4 60.09 369.79 106.89 352.19 173.56 338.99 245.91 330.1 331.51 319.01 336.49 317.27 263.3 324.41 202.42 328.35 148.07 332.95 109.75 336.28 99.55 327.01 181.23 291.92 306.88 215.98 423.36 109.64 484.88 -12.37 486.31 -107.45 439.15 -133.63 379.75 -78.1 336.28 29.5 313.25 103.64 324.35 83.99 360.17 -41.89 384.71 -120.62 412.06 -190.68 440.6 -236.58 471.17 -248.15 501.23 -222.13 529.76 -163.91 558.92 -89.77 585.75 -16.94 609.72 34.53 633.79 48.56 654.77 21.16 672.38 -41.84 689.98 -123.8 703.79 -200.21 714.01 -250.54 724.33 -263.08 731.29 -233.89 735.33 -171.6 740 -91.48 742.55 -12.94 743.92 46.57 747.32 75.4 751.23 69.45 757.2 33.48 782.4 -90.11 829.28 -181.28 906.57 -171.8 1004.3 -67.2 1114.26 71.7 1207.56 177 1252.27 217.72 1232.5 195.69 1152.69 145.77 1038.64 70.09 1133.72 67.43 1237.45 92.79 1301.42 114.69 1348.14 138.66 1368.55 163.14 1359.3 189.05 1321.05 213.93 1260.65 236.85 1191.78 260.08 1126.89 280.7 1080.09 298.31Q1080.09 298.31 1080.09 298.31" opacity="0.59"></path><path d="M1054.59 242.76C1050.63 276.21 1145.31 308.09 1265.43 342.76 1333.68 383.33 1301.04 437.07 1191.74 510.62 1063.42 594.81 979.33 693.3 965.79 788.29 1017.31 851.33 1093.69 866.47 1154.43 819.87 1182.53 740.4 1161.85 662.48 1104.91 644.4 1022.59 717.52 934.82 855.55 855.47 980.55 780.66 1008.57 720.85 918.99 673.52 781.76 630.08 723.11 592.86 799.51 559.41 952.6 525.96 1041.5 497.87 982 478.23 833.55 462.48 719.87 461.45 725.65 478.29 827.1 499.68 942.51 532.36 977.13 563.13 911.76 568.52 782.62 541.18 658.15 469.24 586.81 364.67 581.71 248.63 624.55 162.28 679.37 140.99 731.88 195.08 753.49 298.89 744.47 383.67 714.19 397.27 668.09 316.12 619.28 183.09 565.83 81.63 520.08 85.59 486.63 191.85 453.18 324.02 433.61 393.51 423.98 360.79 409.72 259.06 394.97 160.39 367.3 119.44 318.36 164.77 241.68 269.24 137.62 391.41 31.24 483.86 -59.62 526.11 -98.37 517.33 -70.88 477.59 13.91 432.79 108.24 389.5 138.79 369.73 74.2 373.92 -65.71 393.43 -191.69 427.75 -216.52 467.44 -115.77 511.33 19.76 552.03 72.52 585.48 -16.34 618.93 -169.44 643.54 -239.09 662.73 -167.56 686.12 -17.42 712.65 91.21 751.11 87.72 804.88 -12.75 879.73 -120.79 974.57 -159.1 1070.92 -106.19 1158.68 11.38 1211.3 134.68 1212.89 225.12 1160.1 258 1072.75 246.51 1003.11 203.08 987.78 159.67 1053.24 133.44 1176.43 117.86 1297.2 124.96 1342.82 147.47 1286.25 175.88 1160.85 209.31 1054.59 242.76Q1054.59 242.76 1054.59 242.76" opacity="0.83"></path><path d="M1029.07 276.52C1022.38 308.21 1106.41 349.31 1221.35 401.41 1300.67 456.63 1292.95 526.67 1206.89 609.43 1084.37 688.42 981.53 763.3 933.6 813.95 948.71 826.1 1005.32 792.21 1069.69 718.97 1124.12 647.87 1142.4 609.81 1124.45 643.73 1077.4 749.24 1011.57 884.68 941.62 975.78 866.86 967.03 800.78 862.66 746.55 738.08 693.8 698.9 651.64 781.24 619.95 927.11 588.26 1014.85 568.55 968.92 561.55 832.75 556.01 709.53 564.45 684.33 584.3 758 599.33 874.09 612.97 944.32 611.19 928 580.31 834.59 516.53 709.78 420.57 605.21 267.57 543.77 224.53 638.89 361.04 679.88 423.86 688.04 413.55 675.45 322 650.16 194.83 619.48 104.38 585.95 111.07 554.27 210.21 522.58 337.32 494.23 414.87 465.16 402.27 430.69 317.69 385.63 218.13 322.56 153.53 247.08 162.8 154.04 237.13 55.85 348.66 -20.9 456.16 -61.21 531.05 -43.89 478.85 -49.69 506.27 77.11 553.02 9.12 584.71 -136.74 616.45 -212.66 650.96 -161.25 689.41 -24.44 737.57 97.95 800.03 129.93 870.78 62.06 955.25 -44.95 1044.81 -117.47 1120.06 -118.4 1171.42 -42.77 1180.17 69.85 1146.81 184.62 1076.88 264 998.35 300.69 957.01 298.88 976.16 276.19 1063.99 252.11 1238.08 218.06 1188.55 234.45 1029.07 276.52Q1029.07 276.52 1029.07 276.52" opacity="0.98"></path><path d="M1003.57 380.41C994.43 410.33 1067.99 454.02 1176.15 509.81 1263 564.92 1277.69 628.81 1217.11 693.28 1108.75 744.12 998.18 776.84 923.39 777.19 901.13 748.04 926.83 688.9 977.41 619.71 1038.44 580.29 1081.36 591.04 1096.69 668.21 1088.26 788.16 1055.2 905.04 1008.57 957.27 951.27 916.95 893.97 805.54 843.34 697.1 791.68 676.42 749.91 763.19 719.99 901.61 690.06 987.75 673.39 954.58 668.61 832.34 662.8 704.83 665.66 652.69 671.09 694.75 665.86 798.19 649.63 889.3 611.94 917.14 550.49 871.05 464.6 770.49 364.35 658.36 274.54 562.75 213.37 508.74 204.46 493.57 248.09 510.96 331.82 540.64 418.24 566.11 456.89 591.86 425.17 601.35 326.77 594.92 207.06 585.21 127.43 564.2 136.57 534.27 228.7 504.34 349.95 466.92 433.42 420.19 439.42 370.18 374.26 306.25 280.58 228.63 200.78 151.3 178.09 72.34 218.03 8.83 305.64 -22.11 410.91 -11.08 504.03 45.3 571.21 118.21 602.86 183.29 606.98 198.22 588.16 139.22 563.58 21.27 544.64 -104.1 525.51 -168.1 519.99 -132.98 528.06 -17.03 538.34 93.65 559.16 120.76 589.09 34.62 619.01 -103.79 656.63 -184.5 702.79 -152.26 751.16 -32.28 811.12 96.15 882.12 158.41 952.92 128.12 1026.78 38.08 1091.73 -50.71 1133.73 -96.72 1145.05 -71.98 1117.09 6.65 1063.2 115.07 993.41 217.17 936.95 292.45 928.18 338.22 977.71 354.78 1079.45 355.81 1236.16 338.48 1153.29 343.1 1003.57 380.41Q1003.57 380.41 1003.57 380.41" opacity="0.57"></path><path d="M978.09 495.41C966.79 523.57 1030.17 561.6 1130.18 605.94 1221.07 646.94 1254.82 686.94 1220.1 716.61 1132.31 730.96 1024.88 722.57 933.66 686.95 874.45 612.42 966.93 577.93 1025.66 709.44 1047.34 825.09 1046.37 911.5 1027.81 924.58 997.66 859.99 959.82 748.97 921.41 659.2 880.37 655.64 844.32 745.32 816.15 876.1 787.99 960.2 769.04 938.85 756.95 831.72 742.25 704.95 728.84 631.2 710.18 640.89 679.93 721.13 634.52 817.04 569.42 877.3 491.6 879.57 402.54 819.84 316.97 725.52 255.82 619.92 231.84 533.35 257.02 477.05 360 448.46 457.41 476.08 330.76 480.92 219.87 480.28 150.79 466.16 162.09 438 247.33 409.83 362.04 368.94 449.31 316.46 471.85 264.02 427.23 201.76 345.11 135.98 258.98 80.4 211.39 37.27 217.49 20.82 272.86 33.71 360.63 79.83 455.04 148.52 541.91 205.92 604.24 232.26 640.66 200.67 653.87 111.09 652.01 -10.07 645.67 -110.96 632.47 -141.31 625.91 -83.6 629.96 32.28 633.99 128.54 649.8 144.22 677.97 60.15 706.13 -70.62 745.32 -154.62 794.41 -140.22 843.48 -39.59 901.28 87.46 963.29 172.71 1018.45 180.28 1066.69 119.14 1096.89 32.82 1103.89 -41.46 1082 -63.88 1032.04 -31.27 974.55 44.85 920.18 140.26 894.14 230.71 917.36 309.74 990.21 364.53 1096.98 398.98 1199.76 418.12 1260.41 429.36 1248.73 441.49 1172.33 450.26 1063.33 467.24 978.09 495.41Q978.09 495.41 978.09 495.41" opacity="0.63"></path><path d="M952.57 556.23C939.5 582.63 993.11 609.81 1083.9 634.5 1175.46 655.44 1224.29 667.01 1214.04 663.26 1150.82 649.75 1056.02 618.27 959.99 573.36 883.06 535.37 841.41 508.93 833.87 513.31 856.42 559.93 892.75 646.54 928.55 756.01 963.87 851.17 984.16 900.58 988.53 878.55 984.61 798.28 968.78 694.31 945.99 624.71 920.37 636.54 893.08 727.66 866.67 850.61 840.26 932.23 816 921.65 791.82 830.37 764.81 708.88 732.6 619.73 690.77 599.15 640.63 649.36 576.85 735.1 500.83 811.92 424.34 853.84 350.09 840.32 292.94 781.92 265.87 693.57 276.21 600.38 325.65 520.47 394.18 456.54 465.3 415.86 509.16 392.21 500.05 381.95 436.19 376.31 334.45 367.63 233.46 361.56 174.5 346.56 187.57 320.15 266 293.75 373.59 257.18 462.65 213.46 499.35 172.34 475.27 129.94 409.01 94.44 325.01 72.32 261.45 69.52 238.55 92.76 259.12 131.97 318.74 187.24 398.82 240.98 487.4 264.77 566.03 246.99 626.75 177.58 670.69 73.27 696.89 -36.14 712.12 -105.71 717.67 -104.51 722.25 -30.4 731.4 80.88 738.8 161.99 754.8 167.24 781.2 85.65 807.6 -37.3 843.17 -123.08 885.56 -124.75 926.21 -44.97 969.67 74.02 1009.88 173.65 1040.42 215.05 1057.71 189.33 1054.47 121.67 1034.46 39.7 993.74 -15.61 939.77 -27.62 894.3 2.6 865.98 66.95 872.89 145.63 923.28 231.25 1010.52 306.21 1113.87 365.49 1199.49 414.99 1238.62 451.46 1212.12 480.32 1133.27 505.43 1031.04 529.81 952.59 556.22Q952.57 556.23 952.57 556.23" opacity="0.77"></path><path d="M927.07 528.3C912.53 552.95 956.84 569.67 1037.64 577.06 1126.81 582.27 1186.4 574.92 1197.77 554.34 1160.6 532.62 1085.55 503.32 995.82 475.84 908.83 466.83 843.61 480.31 806.37 526.66 797.08 602.54 808.75 699.73 830.31 795.42 860.93 859.09 886.37 870.85 901.63 821.2 914.24 688.55 883.75 664.58 849.71 825.11 825.06 903.83 795.73 902.87 760.89 827.65 724.14 715.36 678.77 617.42 623.71 571.18 565.74 588.74 499.71 652.54 431.11 729.13 371.57 795.05 324.51 821.75 301.5 805.85 306.44 753.93 342.43 679.72 403.76 600.93 467.83 521.94 520.77 456.69 539.88 406.95 510.44 367.04 436.83 337.9 338.15 314.13 247.84 293.62 198.53 272.29 213.07 247.65 284.85 223 384.82 196.21 473.69 170.23 521.8 147.53 517.12 131.83 469.46 129.03 394.91 136.06 325.03 160.72 281.2 201.72 270.09 242.52 297.13 281.36 351.83 300.97 425.52 284.57 503.12 228.66 573.73 137.08 637.29 34.83 686.46 -51.06 723.02 -86.7 751.09 -58.54 772.6 25.35 792.19 128.13 809.39 193.85 829.34 189.84 853.99 111.15 878.63 -3.82 906.8 -89.96 936.08 -105.64 962.98 -47.14 986.3 58.27 1000.94 163.29 1007.1 231.01 998.53 241.37 972.95 203.37 940.33 133.34 898.11 65.36 856.72 21.79 834.32 7.74 836.49 29.64 873.25 76.63 942.73 142.1 1034.71 211.98 1127.33 276.41 1193.06 339.7 1211.78 391.89 1173.21 433.16 1093.86 472.25 998.88 503.65 927.09 528.29Q927.07 528.3 927.07 528.3" opacity="0.13"></path><path d="M901.59 427.49C885.89 450.38 921.47 461.73 991.77 462.2 1108.84 458.12 1133.15 424.93 1033.22 427.4 948.83 453.54 872.22 502.93 813.59 576.63 775.23 662.04 758.19 749.28 756.28 816.56 768.02 844.33 783.27 823.11 795.55 755.56 813.11 633.08 802.11 647.87 772.55 799.6 749.66 875 718.33 882.43 679.12 823.03 639.44 723.08 591.58 622.87 537.48 557.37 485.54 543.75 432.6 578.48 385.59 640.26 352.23 711.69 336.41 763.97 344.78 785.1 373.41 775.63 422.89 736.79 483.45 680.85 534 612.6 564.57 545.25 559.89 485.82 514.13 429.16 435.18 383.19 342.24 346.82 263.11 312.6 222.89 284.55 238.59 261.66 303.88 238.78 395.85 222.14 482.71 213.2 539.28 206.41 551.95 210.75 523.96 227.74 464.44 247.51 397.39 277.17 342.44 310.15 307.3 330.82 303.71 336.82 328.43 316.29 375.93 265.17 437.27 185.76 501.93 90.5 568.9 4.89 628.41 -50.36 678.03 -53.53 722.99 -4.82 759.32 82.35 789.16 173.47 817.04 224.06 841.88 212.01 864.77 136.64 897.58 -12.77 938.75 -1.12 936.1 144.64 926.14 228.98 904.32 270.73 872.62 266.79 843.23 223.34 814.75 163.24 797.24 107.82 802.52 64.12 833.25 47.58 892.21 56.71 970.99 86.21 1058.57 130.5 1134.86 179.86 1179.63 235.08 1179.98 285.97 1132.24 328.58 1054.21 371.27 966.88 404.61 901.59 427.49Q901.59 427.49 901.59 427.49" opacity="0.22"></path><path d="M876.07 311.08C859.59 332.2 887.13 344.54 946.75 349.86 1023.57 356.87 1091.54 360.57 1133.35 365.79 1143.2 379.41 1117.1 402.84 1064.01 441.63 992.98 494.68 917.91 563.84 849.91 643.44 792.08 718.34 750.74 779.88 724.52 811.68 711.41 805.81 707.08 760.35 706 685.42 710.6 581.64 695.94 631.93 668.76 774.11 647.63 845.78 618.5 860.31 582.85 816.06 547.97 730.72 508.44 634.21 467.78 556.87 432.26 517.04 401.8 520.75 382.35 557.74 376.01 617.61 387.02 676.88 417.17 720.47 457.48 746.01 507.5 745.14 556.54 722.89 587.63 683.93 594.78 635.48 569.44 585.69 512.15 532.25 432.15 484.47 347.18 445.06 279.41 405.91 247.59 375.39 264.07 354.26 323 333.14 406.68 322.41 489.9 321.73 565.63 325.97 501.17 367.49 416.76 380.72 367.97 370.41 340.94 340.95 337.75 287.72 355.16 216.44 390.95 132.13 437.24 50.26 492.06 -8.71 547.06 -31.37 597.43 -7.03 647.57 54.82 690.5 139.3 725.67 216.5 759.96 252.59 787.73 233.78 808.85 162.11 836.72 22.07 851.44 -3.76 835.66 121.51 821.9 211.92 801.69 276.33 779.42 304.2 765.69 294.4 760.22 257.9 770.5 210.68 801.36 158.78 853.44 119.94 924.22 99.46 1002.32 93.22 1077.88 104.58 1134.36 127.57 1158.66 158.96 1143.42 193.69 1089.5 226.51 1014.44 261.04 935.03 289.94 876.09 311.07Q876.07 311.08 876.07 311.08" opacity="0.28"></path><path d="M850.57 245.15C833.62 264.52 853.84 281.83 902.88 298.58 970.7 317.36 1036.85 339.41 1086.38 368.14 1113.48 403.37 1110.47 449.47 1081 507.21 1030.62 569.55 968.13 637.44 903.36 702.35 839.24 752.06 784.14 780.34 740.3 777.76 705.38 746 680.45 687.33 662.37 614.97 649.77 553.62 639.1 517.96 627.32 524.02 616.89 575.07 602.61 658.28 583.25 748.61 563.88 816.15 540.35 836.44 514.26 806.26 489.52 736.85 464.96 649.1 444 567.58 425.05 496.91 454.29 553.45 506.67 625.53 565.83 682.64 617.94 690.1 569.46 653.2 505.74 619.24 428.57 584.2 353.28 552.37 296.76 519.3 272.62 492.19 289.57 472.83 342.34 453.46 417.57 442.76 495.7 439.31 579.62 434.53 565.7 422.23 496.68 391.04 445.31 352.53 405.28 297.93 381.74 228.84 372.67 155.78 381.38 84.04 403.55 27.68 436.26 -0.58 475.04 6.34 514.8 50.67 557.58 118 596.89 194.72 630.37 256.66 664.07 279.36 691.13 255.15 710.5 187.61 735.24 57.63 744.44 -0.82 733.18 98.05 726.98 184.6 720.09 260.64 717.22 312.57 724.88 335.3 743.97 329.99 778.42 305.65 827.33 266.13 890.32 226.04 961.85 193.55 1059.72 158.54 1116.25 161.19 1045.33 185.52 974.67 205.28 903.37 225.78 850.59 245.14Q850.57 245.15 850.57 245.15" opacity="0.72"></path><path d="M825.08 267.2C807.99 284.8 821.66 306.81 860.49 333.61 918.16 361.65 979.19 396.56 1031.45 439.05 1088.01 529.77 1050.95 641.95 958.14 730.97 841.44 749.3 743.66 675.45 677.18 548.4 649.45 504.98 626.61 488.56 606.89 508.19 588.41 562.9 570.73 641.18 553.13 723.14 535.52 786.15 518.82 810.81 504.1 793.26 490.63 740.17 481.44 665.02 478.67 586.42 484.13 472.78 526.96 464.59 597.51 522.69 644.18 607.82 643.9 652.71 561.53 650.74 496.36 641.32 425.32 625.7 360.85 607.3 315.23 587.25 297.99 567.6 315.08 550 361.88 532.4 428.59 517.67 500.43 504.52 564.88 489.72 611.05 473.31 633.74 452.22 605.31 393.18 524.16 293.34 454.62 162.07 412.27 57.82 423.29 28.67 464.39 116.5 491.41 182.19 519.26 247.32 545.13 293.62 571.91 304.38 594.78 276.15 612.38 213.14 629.99 131.18 641.49 56.47 647.91 8.55 655.25 -4.28 659.42 22.16 662.91 78.48 682.82 231.33 726.75 342.53 815.25 370.35 930.94 327.47 1049.43 270.24 1103.66 240.53 1093.87 228.55 1057.73 225.67 1000.06 230.82 935.03 237.22 871.88 249.59 825.08 267.2Q825.08 267.2 825.08 267.2" opacity="0.74"></path><path d="M799.57 364.64C792.88 396.33 870.82 456.96 970.76 539.16 1046.56 615.25 1051.03 687.72 998.13 715.72 908.86 684.94 815.54 592.21 741.25 489.64 672.44 466.65 623.17 551.75 591.48 697.61 559.79 785.35 548.69 738.69 562.59 609.7 603.9 453.47 665.9 523.64 547.83 574.66 424.67 587.81 333.88 573.69 340.57 542.01 439.71 510.32 567.35 464.06 649.44 396 656.61 317.47 606.32 213.21 544.38 112.02 483.7 58.99 459.89 82.16 468.54 186.77 491.37 292.53 525.31 326.35 557 238.61 588.68 92.75 615.12 20.5 647.2 66.71 693.47 192.5 766.73 318.85 868.94 391.16 1014.36 393.18 956.11 333.08 799.57 364.64Q799.57 364.64 799.57 364.64" opacity="0.58"></path><path d="M774.07 482.18C762.8 510.35 821.02 559.18 906.78 615.09 989.43 657.82 1024.62 679.71 1010.54 655.79 960.54 597.87 891.49 510.12 827.21 441.81 760.22 449.86 709.82 541.34 681.66 672.11 653.49 756.21 650.22 733.67 668.4 633.08 683.87 508.92 708.96 420.76 722.04 387.11 699.2 401.34 634.14 434.47 530.85 457.12 424.44 481.93 354.8 481.49 366.07 453.33 451.29 425.16 566.27 371.94 654.96 298.31 691.07 226.85 675.2 149.76 635.05 98.61 579.09 95.35 541.06 153.63 529.39 257.15 525.21 337.09 540.25 348.21 568.42 264.11 596.58 133.33 635.2 53.27 688.18 65.87 748.66 154.82 830.65 272.45 923.53 367.29 1000.61 428.12 1046.36 450.19 1030.91 456.27 962.87 449.18 859.32 454.01 774.09 482.17Q774.07 482.18 774.07 482.18" opacity="0.61"></path><path d="M748.59 553.03C734.02 577.68 774.08 605.33 842.25 625.08 920.64 633.25 972.72 615.06 988.64 563.38 977.61 502.97 942.01 438.33 899.56 407.08 850.4 439.47 809.24 531.62 784.59 646.6 759.94 725.32 754.15 722.8 760.59 652.41 760.34 546.46 757.48 448.05 736.2 383.38 687.98 352.23 609.76 348.12 513.31 350.41 427.07 361.56 377.02 359 391.59 334.35 463.38 309.7 563.46 265.31 651.55 211.45 707.33 166.45 722.66 132.1 710.61 130.94 676.16 163.31 644.14 235.58 628.04 323.46 612.71 375.78 616.98 368.32 641.63 289.6 666.28 174.62 708.96 92.46 767.01 78.14 825.81 127.45 896.3 218.23 963.05 310.94 1007.4 394.92 1018.21 451.57 980.49 486.12 910.47 509.08 820.38 528.39 748.59 553.03Q748.59 553.03 748.59 553.03" opacity="0.97"></path><path d="M723.07 536.98C706.59 558.1 730.77 566.88 780 559.47 845.61 546.58 900.69 511.76 933.28 460.13 950.89 416.83 945.98 384.42 927.77 386.51 903.05 434.91 876.68 522.48 855.55 621.11 834.43 692.78 820.56 705.48 808.67 663.87 790.27 585.4 762.2 496.38 716.91 421.26 656.63 361.21 579.14 323.98 498.05 301.55 433.33 287.77 400.59 273.79 417.07 252.67 476 231.54 559.75 205.27 640.97 182.44 706.04 168.27 744.13 172.53 758.4 204.89 752.25 252.32 739.32 318.93 731.75 381.92 720.87 408.05 723.86 386.78 744.98 315.11 766.1 216.47 803.35 137.47 850.84 104.55 895.02 117.95 940.92 172.77 974.77 243.76 988.2 323.08 972.52 390.86 922.94 440.36 857.21 484.38 782.03 515.84 723.09 536.97Q723.07 536.98 723.07 536.98" opacity="0.22"></path><path d="M697.59 443.09C696.71 478.3 781.33 442.5 852.68 370.88 905.62 355.24 899.06 435.54 863.85 595.6 828.64 685.22 771.45 610.46 672.37 484.43 554.87 361.08 441.71 289.86 442.59 254.65 556.01 219.44 695.13 226.92 771.8 304.12 794.49 384.01 798.32 430.22 833.53 340.6 868.74 180.54 928.66 128.78 952.11 190.57 921.59 308.33 811.01 407.89 697.59 443.09Q697.59 443.09 697.59 443.09" opacity="0.94"></path><path d="M672.07 324.75C660.8 352.91 708.77 335.76 760.75 316.37 817.9 344.46 834.04 439.34 805.88 570.11 777.71 654.21 710.57 629.14 616.5 549.28 527.6 445.91 456.8 367.36 468.07 339.19 553.3 311.02 668.73 338.57 751.83 405.03 808.79 447.97 840.81 450.21 868.98 366.11 897.15 235.34 916.13 163.29 896.08 172.12 849.9 228.42 757.3 296.58 672.07 324.75Q672.07 324.75 672.07 324.75" opacity="0.90"></path><path d="M646.57 249.13C630.09 270.25 647.63 282.38 673.71 307.2 711.8 357.5 727.87 445.99 706.75 544.61 685.62 616.28 631.3 625.22 565.53 591.66 511.75 534.24 477.09 479.39 493.57 458.27 552.5 437.14 636.37 453.74 706.9 483.48 770.87 489.35 814.77 463.28 835.89 391.61 857.01 292.99 851.36 221.63 815.08 199.02 772.24 201.89 705.5 228.01 646.57 249.13Q646.57 249.13 646.57 249.13" opacity="0.90"></path><path d="M621.07 259.2C609.8 287.36 637.62 388.36 609.46 519.11 581.29 603.21 507.8 572.4 519.07 544.24 604.3 516.07 720.47 501.21 748.64 417.11 776.8 286.36 706.3 231.03 621.07 259.2Q621.07 259.2 621.07 259.2" opacity="0.56"></path></g></svg>