<svg xmlns="http://www.w3.org/2000/svg" version="1.1" xmlns:xlink="http://www.w3.org/1999/xlink" xmlns:svgjs="http://svgjs.dev/svgjs" viewBox="0 0 800 800" opacity="0.66" width="800" height="800"><g stroke-width="4.5" stroke="#b15902ff" fill="none"><rect width="17.63157894736842" height="17.63157894736842" x="-8.81578947368421" y="-8.81578947368421" transform="rotate(45, 0, 0)"></rect><rect width="17.63157894736842" height="17.63157894736842" x="63.91148325358852" y="-8.81578947368421" transform="rotate(45, 72.72727272727273, 0)"></rect><rect width="17.63157894736842" height="17.63157894736842" x="136.63875598086125" y="-8.81578947368421" transform="rotate(45, 145.45454545454547, 0)"></rect><rect width="17.63157894736842" height="17.63157894736842" x="209.36602870813397" y="-8.81578947368421" transform="rotate(45, 218.1818181818182, 0)"></rect><rect width="17.63157894736842" height="17.63157894736842" x="282.0933014354067" y="-8.81578947368421" transform="rotate(45, 290.90909090909093, 0)"></rect><rect width="17.63157894736842" height="17.63157894736842" x="354.82057416267946" y="-8.81578947368421" transform="rotate(45, 363.6363636363637, 0)"></rect><rect width="17.63157894736842" height="17.63157894736842" x="427.5478468899522" y="-8.81578947368421" transform="rotate(45, 436.36363636363643, 0)"></rect><rect width="17.63157894736842" height="17.63157894736842" x="500.27511961722496" y="-8.81578947368421" transform="rotate(45, 509.0909090909092, 0)"></rect><rect width="17.63157894736842" height="17.63157894736842" x="573.0023923444977" y="-8.81578947368421" transform="rotate(45, 581.8181818181819, 0)"></rect><rect width="17.63157894736842" height="17.63157894736842" x="645.7296650717705" y="-8.81578947368421" transform="rotate(45, 654.5454545454546, 0)"></rect><rect width="17.63157894736842" height="17.63157894736842" x="718.4569377990432" y="-8.81578947368421" transform="rotate(45, 727.2727272727274, 0)"></rect><rect width="17.63157894736842" height="17.63157894736842" x="791.184210526316" y="-8.81578947368421" transform="rotate(45, 800.0000000000001, 0)"></rect><rect width="17.63157894736842" height="17.63157894736842" x="-8.81578947368421" y="63.91148325358852" transform="rotate(45, 0, 72.72727272727273)"></rect><rect width="17.63157894736842" height="17.63157894736842" x="63.91148325358852" y="63.91148325358852" fill="#b15902ff" stroke="none" transform="rotate(45, 72.72727272727273, 72.72727272727273)"></rect><rect width="17.63157894736842" height="17.63157894736842" x="136.63875598086125" y="63.91148325358852" fill="#b15902ff" stroke="none" transform="rotate(45, 145.45454545454547, 72.72727272727273)"></rect><rect width="17.63157894736842" height="17.63157894736842" x="209.36602870813397" y="63.91148325358852" transform="rotate(45, 218.1818181818182, 72.72727272727273)"></rect><rect width="17.63157894736842" height="17.63157894736842" x="282.0933014354067" y="63.91148325358852" fill="#b15902ff" stroke="none" transform="rotate(45, 290.90909090909093, 72.72727272727273)"></rect><rect width="17.63157894736842" height="17.63157894736842" x="354.82057416267946" y="63.91148325358852" transform="rotate(45, 363.6363636363637, 72.72727272727273)"></rect><rect width="17.63157894736842" height="17.63157894736842" x="427.5478468899522" y="63.91148325358852" transform="rotate(45, 436.36363636363643, 72.72727272727273)"></rect><rect width="17.63157894736842" height="17.63157894736842" x="500.27511961722496" y="63.91148325358852" transform="rotate(45, 509.0909090909092, 72.72727272727273)"></rect><rect width="17.63157894736842" height="17.63157894736842" x="573.0023923444977" y="63.91148325358852" transform="rotate(45, 581.8181818181819, 72.72727272727273)"></rect><rect width="17.63157894736842" height="17.63157894736842" x="645.7296650717705" y="63.91148325358852" transform="rotate(45, 654.5454545454546, 72.72727272727273)"></rect><rect width="17.63157894736842" height="17.63157894736842" x="718.4569377990432" y="63.91148325358852" transform="rotate(45, 727.2727272727274, 72.72727272727273)"></rect><rect width="17.63157894736842" height="17.63157894736842" x="791.184210526316" y="63.91148325358852" transform="rotate(45, 800.0000000000001, 72.72727272727273)"></rect><rect width="17.63157894736842" height="17.63157894736842" x="-8.81578947368421" y="136.63875598086125" transform="rotate(45, 0, 145.45454545454547)"></rect><rect width="17.63157894736842" height="17.63157894736842" x="63.91148325358852" y="136.63875598086125" transform="rotate(45, 72.72727272727273, 145.45454545454547)"></rect><rect width="17.63157894736842" height="17.63157894736842" x="136.63875598086125" y="136.63875598086125" transform="rotate(45, 145.45454545454547, 145.45454545454547)"></rect><rect width="17.63157894736842" height="17.63157894736842" x="209.36602870813397" y="136.63875598086125" transform="rotate(45, 218.1818181818182, 145.45454545454547)"></rect><rect width="17.63157894736842" height="17.63157894736842" x="282.0933014354067" y="136.63875598086125" transform="rotate(45, 290.90909090909093, 145.45454545454547)"></rect><rect width="17.63157894736842" height="17.63157894736842" x="354.82057416267946" y="136.63875598086125" transform="rotate(45, 363.6363636363637, 145.45454545454547)"></rect><rect width="17.63157894736842" height="17.63157894736842" x="427.5478468899522" y="136.63875598086125" transform="rotate(45, 436.36363636363643, 145.45454545454547)"></rect><rect width="17.63157894736842" height="17.63157894736842" x="500.27511961722496" y="136.63875598086125" fill="#b15902ff" stroke="none" transform="rotate(45, 509.0909090909092, 145.45454545454547)"></rect><rect width="17.63157894736842" height="17.63157894736842" x="573.0023923444977" y="136.63875598086125" transform="rotate(45, 581.8181818181819, 145.45454545454547)"></rect><rect width="17.63157894736842" height="17.63157894736842" x="645.7296650717705" y="136.63875598086125" transform="rotate(45, 654.5454545454546, 145.45454545454547)"></rect><rect width="17.63157894736842" height="17.63157894736842" x="718.4569377990432" y="136.63875598086125" transform="rotate(45, 727.2727272727274, 145.45454545454547)"></rect><rect width="17.63157894736842" height="17.63157894736842" x="791.184210526316" y="136.63875598086125" transform="rotate(45, 800.0000000000001, 145.45454545454547)"></rect><rect width="17.63157894736842" height="17.63157894736842" x="-8.81578947368421" y="209.36602870813397" transform="rotate(45, 0, 218.1818181818182)"></rect><rect width="17.63157894736842" height="17.63157894736842" x="63.91148325358852" y="209.36602870813397" fill="#b15902ff" stroke="none" transform="rotate(45, 72.72727272727273, 218.1818181818182)"></rect><rect width="17.63157894736842" height="17.63157894736842" x="136.63875598086125" y="209.36602870813397" transform="rotate(45, 145.45454545454547, 218.1818181818182)"></rect><rect width="17.63157894736842" height="17.63157894736842" x="209.36602870813397" y="209.36602870813397" fill="#b15902ff" stroke="none" transform="rotate(45, 218.1818181818182, 218.1818181818182)"></rect><rect width="17.63157894736842" height="17.63157894736842" x="282.0933014354067" y="209.36602870813397" fill="#b15902ff" stroke="none" transform="rotate(45, 290.90909090909093, 218.1818181818182)"></rect><rect width="17.63157894736842" height="17.63157894736842" x="354.82057416267946" y="209.36602870813397" transform="rotate(45, 363.6363636363637, 218.1818181818182)"></rect><rect width="17.63157894736842" height="17.63157894736842" x="427.5478468899522" y="209.36602870813397" transform="rotate(45, 436.36363636363643, 218.1818181818182)"></rect><rect width="17.63157894736842" height="17.63157894736842" x="500.27511961722496" y="209.36602870813397" fill="#b15902ff" stroke="none" transform="rotate(45, 509.0909090909092, 218.1818181818182)"></rect><rect width="17.63157894736842" height="17.63157894736842" x="573.0023923444977" y="209.36602870813397" transform="rotate(45, 581.8181818181819, 218.1818181818182)"></rect><rect width="17.63157894736842" height="17.63157894736842" x="645.7296650717705" y="209.36602870813397" fill="#b15902ff" stroke="none" transform="rotate(45, 654.5454545454546, 218.1818181818182)"></rect><rect width="17.63157894736842" height="17.63157894736842" x="718.4569377990432" y="209.36602870813397" transform="rotate(45, 727.2727272727274, 218.1818181818182)"></rect><rect width="17.63157894736842" height="17.63157894736842" x="791.184210526316" y="209.36602870813397" transform="rotate(45, 800.0000000000001, 218.1818181818182)"></rect><rect width="17.63157894736842" height="17.63157894736842" x="-8.81578947368421" y="282.0933014354067" transform="rotate(45, 0, 290.90909090909093)"></rect><rect width="17.63157894736842" height="17.63157894736842" x="63.91148325358852" y="282.0933014354067" transform="rotate(45, 72.72727272727273, 290.90909090909093)"></rect><rect width="17.63157894736842" height="17.63157894736842" x="136.63875598086125" y="282.0933014354067" transform="rotate(45, 145.45454545454547, 290.90909090909093)"></rect><rect width="17.63157894736842" height="17.63157894736842" x="209.36602870813397" y="282.0933014354067" transform="rotate(45, 218.1818181818182, 290.90909090909093)"></rect><rect width="17.63157894736842" height="17.63157894736842" x="282.0933014354067" y="282.0933014354067" transform="rotate(45, 290.90909090909093, 290.90909090909093)"></rect><rect width="17.63157894736842" height="17.63157894736842" x="354.82057416267946" y="282.0933014354067" transform="rotate(45, 363.6363636363637, 290.90909090909093)"></rect><rect width="17.63157894736842" height="17.63157894736842" x="427.5478468899522" y="282.0933014354067" fill="#b15902ff" stroke="none" transform="rotate(45, 436.36363636363643, 290.90909090909093)"></rect><rect width="17.63157894736842" height="17.63157894736842" x="500.27511961722496" y="282.0933014354067" fill="#b15902ff" stroke="none" transform="rotate(45, 509.0909090909092, 290.90909090909093)"></rect><rect width="17.63157894736842" height="17.63157894736842" x="573.0023923444977" y="282.0933014354067" transform="rotate(45, 581.8181818181819, 290.90909090909093)"></rect><rect width="17.63157894736842" height="17.63157894736842" x="645.7296650717705" y="282.0933014354067" transform="rotate(45, 654.5454545454546, 290.90909090909093)"></rect><rect width="17.63157894736842" height="17.63157894736842" x="718.4569377990432" y="282.0933014354067" transform="rotate(45, 727.2727272727274, 290.90909090909093)"></rect><rect width="17.63157894736842" height="17.63157894736842" x="791.184210526316" y="282.0933014354067" transform="rotate(45, 800.0000000000001, 290.90909090909093)"></rect><rect width="17.63157894736842" height="17.63157894736842" x="-8.81578947368421" y="354.82057416267946" transform="rotate(45, 0, 363.6363636363637)"></rect><rect width="17.63157894736842" height="17.63157894736842" x="63.91148325358852" y="354.82057416267946" transform="rotate(45, 72.72727272727273, 363.6363636363637)"></rect><rect width="17.63157894736842" height="17.63157894736842" x="136.63875598086125" y="354.82057416267946" fill="#b15902ff" stroke="none" transform="rotate(45, 145.45454545454547, 363.6363636363637)"></rect><rect width="17.63157894736842" height="17.63157894736842" x="209.36602870813397" y="354.82057416267946" transform="rotate(45, 218.1818181818182, 363.6363636363637)"></rect><rect width="17.63157894736842" height="17.63157894736842" x="282.0933014354067" y="354.82057416267946" transform="rotate(45, 290.90909090909093, 363.6363636363637)"></rect><rect width="17.63157894736842" height="17.63157894736842" x="354.82057416267946" y="354.82057416267946" fill="#b15902ff" stroke="none" transform="rotate(45, 363.6363636363637, 363.6363636363637)"></rect><rect width="17.63157894736842" height="17.63157894736842" x="427.5478468899522" y="354.82057416267946" transform="rotate(45, 436.36363636363643, 363.6363636363637)"></rect><rect width="17.63157894736842" height="17.63157894736842" x="500.27511961722496" y="354.82057416267946" transform="rotate(45, 509.0909090909092, 363.6363636363637)"></rect><rect width="17.63157894736842" height="17.63157894736842" x="573.0023923444977" y="354.82057416267946" transform="rotate(45, 581.8181818181819, 363.6363636363637)"></rect><rect width="17.63157894736842" height="17.63157894736842" x="645.7296650717705" y="354.82057416267946" transform="rotate(45, 654.5454545454546, 363.6363636363637)"></rect><rect width="17.63157894736842" height="17.63157894736842" x="718.4569377990432" y="354.82057416267946" fill="#b15902ff" stroke="none" transform="rotate(45, 727.2727272727274, 363.6363636363637)"></rect><rect width="17.63157894736842" height="17.63157894736842" x="791.184210526316" y="354.82057416267946" transform="rotate(45, 800.0000000000001, 363.6363636363637)"></rect><rect width="17.63157894736842" height="17.63157894736842" x="-8.81578947368421" y="427.5478468899522" transform="rotate(45, 0, 436.36363636363643)"></rect><rect width="17.63157894736842" height="17.63157894736842" x="63.91148325358852" y="427.5478468899522" transform="rotate(45, 72.72727272727273, 436.36363636363643)"></rect><rect width="17.63157894736842" height="17.63157894736842" x="136.63875598086125" y="427.5478468899522" fill="#b15902ff" stroke="none" transform="rotate(45, 145.45454545454547, 436.36363636363643)"></rect><rect width="17.63157894736842" height="17.63157894736842" x="209.36602870813397" y="427.5478468899522" transform="rotate(45, 218.1818181818182, 436.36363636363643)"></rect><rect width="17.63157894736842" height="17.63157894736842" x="282.0933014354067" y="427.5478468899522" transform="rotate(45, 290.90909090909093, 436.36363636363643)"></rect><rect width="17.63157894736842" height="17.63157894736842" x="354.82057416267946" y="427.5478468899522" transform="rotate(45, 363.6363636363637, 436.36363636363643)"></rect><rect width="17.63157894736842" height="17.63157894736842" x="427.5478468899522" y="427.5478468899522" fill="#b15902ff" stroke="none" transform="rotate(45, 436.36363636363643, 436.36363636363643)"></rect><rect width="17.63157894736842" height="17.63157894736842" x="500.27511961722496" y="427.5478468899522" transform="rotate(45, 509.0909090909092, 436.36363636363643)"></rect><rect width="17.63157894736842" height="17.63157894736842" x="573.0023923444977" y="427.5478468899522" transform="rotate(45, 581.8181818181819, 436.36363636363643)"></rect><rect width="17.63157894736842" height="17.63157894736842" x="645.7296650717705" y="427.5478468899522" transform="rotate(45, 654.5454545454546, 436.36363636363643)"></rect><rect width="17.63157894736842" height="17.63157894736842" x="718.4569377990432" y="427.5478468899522" transform="rotate(45, 727.2727272727274, 436.36363636363643)"></rect><rect width="17.63157894736842" height="17.63157894736842" x="791.184210526316" y="427.5478468899522" transform="rotate(45, 800.0000000000001, 436.36363636363643)"></rect><rect width="17.63157894736842" height="17.63157894736842" x="-8.81578947368421" y="500.27511961722496" transform="rotate(45, 0, 509.0909090909092)"></rect><rect width="17.63157894736842" height="17.63157894736842" x="63.91148325358852" y="500.27511961722496" transform="rotate(45, 72.72727272727273, 509.0909090909092)"></rect><rect width="17.63157894736842" height="17.63157894736842" x="136.63875598086125" y="500.27511961722496" transform="rotate(45, 145.45454545454547, 509.0909090909092)"></rect><rect width="17.63157894736842" height="17.63157894736842" x="209.36602870813397" y="500.27511961722496" transform="rotate(45, 218.1818181818182, 509.0909090909092)"></rect><rect width="17.63157894736842" height="17.63157894736842" x="282.0933014354067" y="500.27511961722496" transform="rotate(45, 290.90909090909093, 509.0909090909092)"></rect><rect width="17.63157894736842" height="17.63157894736842" x="354.82057416267946" y="500.27511961722496" transform="rotate(45, 363.6363636363637, 509.0909090909092)"></rect><rect width="17.63157894736842" height="17.63157894736842" x="427.5478468899522" y="500.27511961722496" transform="rotate(45, 436.36363636363643, 509.0909090909092)"></rect><rect width="17.63157894736842" height="17.63157894736842" x="500.27511961722496" y="500.27511961722496" transform="rotate(45, 509.0909090909092, 509.0909090909092)"></rect><rect width="17.63157894736842" height="17.63157894736842" x="573.0023923444977" y="500.27511961722496" transform="rotate(45, 581.8181818181819, 509.0909090909092)"></rect><rect width="17.63157894736842" height="17.63157894736842" x="645.7296650717705" y="500.27511961722496" transform="rotate(45, 654.5454545454546, 509.0909090909092)"></rect><rect width="17.63157894736842" height="17.63157894736842" x="718.4569377990432" y="500.27511961722496" transform="rotate(45, 727.2727272727274, 509.0909090909092)"></rect><rect width="17.63157894736842" height="17.63157894736842" x="791.184210526316" y="500.27511961722496" transform="rotate(45, 800.0000000000001, 509.0909090909092)"></rect><rect width="17.63157894736842" height="17.63157894736842" x="-8.81578947368421" y="573.0023923444977" transform="rotate(45, 0, 581.8181818181819)"></rect><rect width="17.63157894736842" height="17.63157894736842" x="63.91148325358852" y="573.0023923444977" transform="rotate(45, 72.72727272727273, 581.8181818181819)"></rect><rect width="17.63157894736842" height="17.63157894736842" x="136.63875598086125" y="573.0023923444977" fill="#b15902ff" stroke="none" transform="rotate(45, 145.45454545454547, 581.8181818181819)"></rect><rect width="17.63157894736842" height="17.63157894736842" x="209.36602870813397" y="573.0023923444977" fill="#b15902ff" stroke="none" transform="rotate(45, 218.1818181818182, 581.8181818181819)"></rect><rect width="17.63157894736842" height="17.63157894736842" x="282.0933014354067" y="573.0023923444977" transform="rotate(45, 290.90909090909093, 581.8181818181819)"></rect><rect width="17.63157894736842" height="17.63157894736842" x="354.82057416267946" y="573.0023923444977" transform="rotate(45, 363.6363636363637, 581.8181818181819)"></rect><rect width="17.63157894736842" height="17.63157894736842" x="427.5478468899522" y="573.0023923444977" transform="rotate(45, 436.36363636363643, 581.8181818181819)"></rect><rect width="17.63157894736842" height="17.63157894736842" x="500.27511961722496" y="573.0023923444977" transform="rotate(45, 509.0909090909092, 581.8181818181819)"></rect><rect width="17.63157894736842" height="17.63157894736842" x="573.0023923444977" y="573.0023923444977" fill="#b15902ff" stroke="none" transform="rotate(45, 581.8181818181819, 581.8181818181819)"></rect><rect width="17.63157894736842" height="17.63157894736842" x="645.7296650717705" y="573.0023923444977" transform="rotate(45, 654.5454545454546, 581.8181818181819)"></rect><rect width="17.63157894736842" height="17.63157894736842" x="718.4569377990432" y="573.0023923444977" transform="rotate(45, 727.2727272727274, 581.8181818181819)"></rect><rect width="17.63157894736842" height="17.63157894736842" x="791.184210526316" y="573.0023923444977" transform="rotate(45, 800.0000000000001, 581.8181818181819)"></rect><rect width="17.63157894736842" height="17.63157894736842" x="-8.81578947368421" y="645.7296650717705" transform="rotate(45, 0, 654.5454545454546)"></rect><rect width="17.63157894736842" height="17.63157894736842" x="63.91148325358852" y="645.7296650717705" transform="rotate(45, 72.72727272727273, 654.5454545454546)"></rect><rect width="17.63157894736842" height="17.63157894736842" x="136.63875598086125" y="645.7296650717705" transform="rotate(45, 145.45454545454547, 654.5454545454546)"></rect><rect width="17.63157894736842" height="17.63157894736842" x="209.36602870813397" y="645.7296650717705" transform="rotate(45, 218.1818181818182, 654.5454545454546)"></rect><rect width="17.63157894736842" height="17.63157894736842" x="282.0933014354067" y="645.7296650717705" transform="rotate(45, 290.90909090909093, 654.5454545454546)"></rect><rect width="17.63157894736842" height="17.63157894736842" x="354.82057416267946" y="645.7296650717705" transform="rotate(45, 363.6363636363637, 654.5454545454546)"></rect><rect width="17.63157894736842" height="17.63157894736842" x="427.5478468899522" y="645.7296650717705" transform="rotate(45, 436.36363636363643, 654.5454545454546)"></rect><rect width="17.63157894736842" height="17.63157894736842" x="500.27511961722496" y="645.7296650717705" transform="rotate(45, 509.0909090909092, 654.5454545454546)"></rect><rect width="17.63157894736842" height="17.63157894736842" x="573.0023923444977" y="645.7296650717705" transform="rotate(45, 581.8181818181819, 654.5454545454546)"></rect><rect width="17.63157894736842" height="17.63157894736842" x="645.7296650717705" y="645.7296650717705" fill="#b15902ff" stroke="none" transform="rotate(45, 654.5454545454546, 654.5454545454546)"></rect><rect width="17.63157894736842" height="17.63157894736842" x="718.4569377990432" y="645.7296650717705" transform="rotate(45, 727.2727272727274, 654.5454545454546)"></rect><rect width="17.63157894736842" height="17.63157894736842" x="791.184210526316" y="645.7296650717705" transform="rotate(45, 800.0000000000001, 654.5454545454546)"></rect><rect width="17.63157894736842" height="17.63157894736842" x="-8.81578947368421" y="718.4569377990432" transform="rotate(45, 0, 727.2727272727274)"></rect><rect width="17.63157894736842" height="17.63157894736842" x="63.91148325358852" y="718.4569377990432" fill="#b15902ff" stroke="none" transform="rotate(45, 72.72727272727273, 727.2727272727274)"></rect><rect width="17.63157894736842" height="17.63157894736842" x="136.63875598086125" y="718.4569377990432" fill="#b15902ff" stroke="none" transform="rotate(45, 145.45454545454547, 727.2727272727274)"></rect><rect width="17.63157894736842" height="17.63157894736842" x="209.36602870813397" y="718.4569377990432" transform="rotate(45, 218.1818181818182, 727.2727272727274)"></rect><rect width="17.63157894736842" height="17.63157894736842" x="282.0933014354067" y="718.4569377990432" transform="rotate(45, 290.90909090909093, 727.2727272727274)"></rect><rect width="17.63157894736842" height="17.63157894736842" x="354.82057416267946" y="718.4569377990432" fill="#b15902ff" stroke="none" transform="rotate(45, 363.6363636363637, 727.2727272727274)"></rect><rect width="17.63157894736842" height="17.63157894736842" x="427.5478468899522" y="718.4569377990432" transform="rotate(45, 436.36363636363643, 727.2727272727274)"></rect><rect width="17.63157894736842" height="17.63157894736842" x="500.27511961722496" y="718.4569377990432" transform="rotate(45, 509.0909090909092, 727.2727272727274)"></rect><rect width="17.63157894736842" height="17.63157894736842" x="573.0023923444977" y="718.4569377990432" transform="rotate(45, 581.8181818181819, 727.2727272727274)"></rect><rect width="17.63157894736842" height="17.63157894736842" x="645.7296650717705" y="718.4569377990432" fill="#b15902ff" stroke="none" transform="rotate(45, 654.5454545454546, 727.2727272727274)"></rect><rect width="17.63157894736842" height="17.63157894736842" x="718.4569377990432" y="718.4569377990432" transform="rotate(45, 727.2727272727274, 727.2727272727274)"></rect><rect width="17.63157894736842" height="17.63157894736842" x="791.184210526316" y="718.4569377990432" transform="rotate(45, 800.0000000000001, 727.2727272727274)"></rect><rect width="17.63157894736842" height="17.63157894736842" x="-8.81578947368421" y="791.184210526316" transform="rotate(45, 0, 800.0000000000001)"></rect><rect width="17.63157894736842" height="17.63157894736842" x="63.91148325358852" y="791.184210526316" transform="rotate(45, 72.72727272727273, 800.0000000000001)"></rect><rect width="17.63157894736842" height="17.63157894736842" x="136.63875598086125" y="791.184210526316" transform="rotate(45, 145.45454545454547, 800.0000000000001)"></rect><rect width="17.63157894736842" height="17.63157894736842" x="209.36602870813397" y="791.184210526316" transform="rotate(45, 218.1818181818182, 800.0000000000001)"></rect><rect width="17.63157894736842" height="17.63157894736842" x="282.0933014354067" y="791.184210526316" transform="rotate(45, 290.90909090909093, 800.0000000000001)"></rect><rect width="17.63157894736842" height="17.63157894736842" x="354.82057416267946" y="791.184210526316" transform="rotate(45, 363.6363636363637, 800.0000000000001)"></rect><rect width="17.63157894736842" height="17.63157894736842" x="427.5478468899522" y="791.184210526316" transform="rotate(45, 436.36363636363643, 800.0000000000001)"></rect><rect width="17.63157894736842" height="17.63157894736842" x="500.27511961722496" y="791.184210526316" transform="rotate(45, 509.0909090909092, 800.0000000000001)"></rect><rect width="17.63157894736842" height="17.63157894736842" x="573.0023923444977" y="791.184210526316" transform="rotate(45, 581.8181818181819, 800.0000000000001)"></rect><rect width="17.63157894736842" height="17.63157894736842" x="645.7296650717705" y="791.184210526316" transform="rotate(45, 654.5454545454546, 800.0000000000001)"></rect><rect width="17.63157894736842" height="17.63157894736842" x="718.4569377990432" y="791.184210526316" transform="rotate(45, 727.2727272727274, 800.0000000000001)"></rect><rect width="17.63157894736842" height="17.63157894736842" x="791.184210526316" y="791.184210526316" transform="rotate(45, 800.0000000000001, 800.0000000000001)"></rect></g></svg>