<svg xmlns="http://www.w3.org/2000/svg" version="1.1" xmlns:xlink="http://www.w3.org/1999/xlink" xmlns:svgjs="http://svgjs.dev/svgjs" viewBox="0 0 1422 800"><defs><linearGradient x1="50%" y1="0%" x2="50%" y2="100%" id="ssscribble-grad"><stop stop-color="hsl(353, 100%, 39%)" stop-opacity="1" offset="0%"></stop><stop stop-color="hsl(0, 0%, 0%)" stop-opacity="1" offset="100%"></stop></linearGradient></defs><g fill="none" stroke-width="1.75" stroke="url(#ssscribble-grad)" stroke-linecap="round"><path d="M1184.93 241.75C1166.92 263.49 1202.53 286.43 1278.52 310.6 1372.44 334.98 1453.12 360.99 1496.86 388.91 1492.67 417.55 1440.75 448.7 1356.28 482.65 1260.31 517.77 1176.94 556.07 1124.27 597.53 1111.88 639.89 1138.58 684.92 1193.44 731.87 1263.8 777.93 1329.38 823.99 1375.33 868.35 1394.13 908.29 1379.87 943.4 1336.29 971.51 1269.71 991.28 1191.15 1001.38 1111.82 1000.59 1038.69 990.48 980.97 970.14 941.86 940.89 921.96 907.72 919.75 871.35 930.7 835.75 953.33 807.34 980.11 787.84 1006.26 781.11 1032.73 790.62 1052.7 816.27 1064.81 857.58 1072.16 911.74 1071.19 974.44 1063.09 1039.74 1050.7 1100.68 1033.28 1150.8 1012.59 1183.82 989.78 1196.22 965.74 1185.57 941.75 1152.61 917.23 1103.05 893.83 1041.73 872.08 976.97 850.33 919.58 830.76 876.81 812.92 853.76 794.55 853.52 776.86 874.29 758.66 912.01 738.34 962.75 715.48 1017.61 688.41 1069.2 657.05 1113.05 619.4 1141.9 574.36 1152.75 524.57 1145.59 467.85 1120.06 405.67 1079.23 343.82 1026.63 282.37 966.98 226.23 905.33 181.76 845.09 151.6 790.89 140.39 745.44 148.38 710.05 176.24 685.8 220.87 672.04 271.7 668.7 323.12 673.26 364.02 683.33 381.92 699.13 371.96 716.39 330.52 733.01 261.93 750.35 175.27 764.28 85.52 773.88 -10.94 782.64 34.63 771.57 152.92 753.77 225.13 738.82 266.66 721.22 262.46 701.76 210.32 681.39 123.24 660 25.03 638.18 -55.25 616.12 -93.07 594.08 -75.06 572.34 -7.32 550.59 88.47 529.65 182.16 509.35 246.21 488.82 263.13 468.47 231.06 447.83 159.98 426.28 73.92 403.59 -1.68 379.09 -48.04 352.72 -50.66 323.54 -9.91 290.92 64.65 255.74 155.74 216.56 243.66 173.31 312.81 128 350.85 79.41 355.03 28.55 327.35 -21.57 278.53 -71.2 221.44 -118.12 164.92 -159.31 123.1 -193.73 102.61 -218.89 104.76 -233.64 130.8 -236.54 175.96 -226.83 236.3 -207.06 304.09 -177.07 372.67 -139.48 440.02 -100.47 499.42 -61.9 548.86 -28.69 589.35 -7.25 619.33 0.55 640.64 -8.21 654.29 -35 662.74 -78 668.58 -134.12 670.66 -197.98 673.25 -263.22 678.07 -322.35 685.43 -382.06 720.95 -360.7 750.98 -283.03 772.72 -218.28 799.13 -154.75 829.81 -100.88 860.31 -63.61 894.66 -46.55 932 -50.56 968.2 -75.17 1005.89 -114.91 1043.27 -163.58 1076.87 -216.6 1107.05 -265.15 1131.09 -303.38 1147.46 -328.75 1154.24 -336.68 1149.45 -326.8 1135.72 -300.67 1110.98 -260.1 1077.15 -209.05 1042.09 -150.81 1006.66 -90.22 977.43 -31.38 963.39 23.55 967.22 71.03 993.56 109.65 1042.55 138.94 1111.52 158.7 1193.72 170.04 1276.49 173.05 1349.52 170.31 1399.84 163.88 1418.31 153.04 1401.34 141.64 1351.59 131.28 1283.06 120.05 1209.69 111.76 1151.06 107.09 1126.26 103.32 1143.04 103.64 1201.67 107.97 1289.55 113.47 1385.99 122.61 1465.46 134.98 1505.93 148.07 1495.4 163.8 1435.65 181.77 1346.27 199.96 1252.67 220 1184.93 241.75Q1184.93 241.75 1184.93 241.75" opacity="0.13"></path><path d="M1154.93 299.4C1136.49 320.11 1166.92 343.19 1235.6 368.54 1324.17 394.01 1405.61 421.96 1457.95 452.42 1469.18 483.2 1435.29 516.67 1365.84 552.74 1276.79 589.07 1188.78 627.79 1120.07 668.41 1082.83 708.44 1082.04 749.33 1113.38 789.97 1169.38 827.98 1234.1 863.7 1293.14 895.5 1337.46 921.79 1356.17 941.74 1347.04 953.84 1311.92 958.32 1255.76 953.83 1187 940.16 1111.72 920.18 1039.78 893.16 977.4 861.11 926.85 829.18 891.9 797.98 871.75 771.12 865.56 753.77 870.04 746.96 881.22 753.27 899.21 774.44 917.88 809.62 934.4 857.32 951.32 914.1 963.11 975.77 969.13 1036.8 972.43 1112.41 950.27 1157.96 928.4 1116.17 912.27 1067.44 893.7 1008.61 872.99 946.97 852.27 892.02 829.92 850.03 805.71 825.56 781.05 821.61 753.68 836.98 722.92 868.64 690.7 913.68 653.99 964.61 612.28 1015.03 568.69 1061.07 520.11 1095.69 467.3 1115.49 414.89 1119.83 361.22 1107.07 309.23 1078.88 264.04 1037.78 226.55 987.03 200.81 930.82 189.04 872.1 193.17 815.29 214.09 763.46 246.83 718.09 290.33 681.43 338.47 653.91 395.24 630.79 384.85 631.31 298.08 645.65 217.48 659 132.68 671.66 58.21 682.36 8.4 693.14 -7.68 700.52 14.37 704.07 67.9 706.42 142.43 704.77 219.79 699.32 277.55 692.64 301.55 682.66 282.33 669.81 222 656.26 134.47 640.45 41.79 622.76 -30.97 604.88 -63.5 585.5 -45.06 564.79 18.59 544.08 108.95 522.52 200 500.07 267.4 477.41 294.18 453.48 275.91 427.97 218.17 401.76 139.47 373.38 61.47 342.48 1.79 310.36 -22.73 275.23 -7.28 236.99 44.37 197.54 121.49 155.17 208.11 110.38 289.88 65.68 352.11 20 387.04 -25.26 391.8 -67.44 369.81 -106.44 329.21 -140.25 276.42 -167.04 224.54 -185.69 182.4 -194.61 153.43 -194.24 144.32 -183.43 154.99 -162.52 183.56 -135.15 227.09 -101.39 280.36 -64.24 341.24 -29.59 403.24 1.08 462.48 23.71 519.52 33.43 569.67 29.33 612.41 9.8 649.77 -25.16 680.28 -73.26 705.35 -130.99 726.35 -193.09 744.17 -253.91 760.46 -306.94 774.86 -346.6 789.59 -368.07 805.72 -368.23 821.4 -347.87 839.4 -307.98 860.11 -253.03 880.82 -191.39 903.76 -130.47 928.42 -77.64 952.62 -39.08 977.64 -18.29 1002.3 -16.51 1025.08 -33.97 1045.62 -66.51 1062.2 -109.22 1074.7 -158.56 1080.98 -206.75 1079.5 -248.35 1072.66 -280.88 1057.51 -299.18 1034.48 -301.88 1009.24 -289.72 980.25 -262.84 951.29 -223.93 929.95 -175.5 917.24 -121.25 918.31 -64.86 937.27 -8.35 974.83 44.5 1030.94 91.64 1100.22 132.45 1177.95 165.38 1255.2 190.53 1342.77 213.5 1347.66 223.34 1263.29 217.98 1165.02 208.4 1117.15 195.62 1207.52 195.9 1297.21 197.4 1385.81 202.29 1451.53 210.57 1477.8 219.18 1457.11 230.97 1393.8 245.85 1306.85 260.83 1218.59 278.69 1154.93 299.4Q1154.93 299.4 1154.93 299.4" opacity="1.00"></path><path d="M1124.91 383.38C1106.2 403.06 1131.74 425.5 1193.17 450.52 1275.73 475.55 1356.3 503.17 1415.04 533.14 1439.75 563.04 1423.44 595.12 1370.91 628.97 1293.36 662.28 1207.21 696.72 1129.32 731.53 1072.58 764.64 1046.04 796.84 1050.84 826.94 1084.36 853.49 1136.25 876.17 1194.73 893.67 1272.56 908.43 1302.04 893.68 1246.47 864.4 1187.94 839.65 1121.69 811.27 1054.38 781.52 988.84 755.2 931.6 732.7 885 716.98 848.85 711.85 824.36 717.71 809.76 735.97 804.34 766.96 805.07 809.33 809.14 860.94 817.66 918.07 825.89 976.87 832 1032.37 840.81 1096.94 837.2 1123.99 823.68 1079.4 812.96 1031.74 797.78 975.5 778.11 916.98 758.43 864.51 734.73 823.45 707.12 797.85 679.37 790.56 647.5 800.87 611.64 826.57 575.63 865.65 535.84 911.88 492.99 959.86 451.19 1006.38 408.02 1044.83 365.4 1071.65 327.23 1085.92 293.25 1084.97 266.37 1069.39 248.66 1040.85 241.78 1001.16 247.61 953.56 263.89 900.47 291.85 845.64 329.23 792.17 368.39 741.48 407.63 696.46 440.36 658.32 458 627.29 457.74 603.96 435.38 587.69 390.75 578.41 326.65 574.52 249.42 574.55 170.46 579.06 99.5 585.19 48.43 591.57 26.08 599.78 36.59 606.54 78.91 611.07 142.38 615.76 215.71 617.47 282.16 615.96 323.59 614.02 330.5 608.82 298.2 600.44 231.87 591.69 145.51 580.01 59.06 565.54 -6.25 550.96 -33.79 533.81 -15.08 514.14 44.54 494.47 129.38 472.73 217.23 448.99 286.83 425.13 322.12 399.05 316.92 370.69 273.31 341.98 204.74 310.73 128.86 276.97 61.16 242.79 19.06 206.13 10.84 167.34 37.24 128.72 93.73 88.71 169.07 48.19 251.66 9.5 327.33 -27.98 385.78 -62.82 421.06 -93.18 430.49 -118.58 416.96 -137.45 383.66 -149.33 339.87 -153.01 293.91 -147.78 249.54 -135.42 215.99 -114.97 196.76 -87.52 191.58 -57.27 202.58 -24.35 227.37 8.25 264.08 35.36 309.16 55.98 358.73 66.98 412.57 65.02 465.68 49.93 515.83 21.25 565.02 -19.98 609.3 -71.24 648.45 -128.86 685.33 -187.94 717.57 -243.57 745.89 -290.24 772.73 -323.54 796.87 -339.65 819.03 -336.26 840.76 -314.56 861.35 -275.5 881.02 -223.03 900.7 -164.52 919 -106.28 935.59 -54.73 958.56 -3.34 986.54 -7.59 987.47 -56.35 984.02 -100.75 974.68 -146.74 959.59 -189.45 943.54 -226.64 923.68 -252.98 902.14 -266.43 884.88 -267.14 871.16 -253.94 864.77 -228.32 870.3 -192.12 888.58 -147.71 921.9 -98.15 969.28 -45.18 1029.84 7.75 1099.99 58.29 1171.74 105.81 1240.1 147.92 1296.64 183.96 1333.4 214.14 1345.89 238.01 1331.1 256.28 1293.15 269.11 1236.55 277.79 1171.51 283.54 1093.48 286.27 1111.34 287.32 1217.58 289.96 1304.57 291.81 1382.53 296.18 1433.75 303.38 1446.56 310.51 1417.08 320.66 1351.38 333.95 1267.43 347.25 1184.58 363.7 1124.93 383.37Q1124.91 383.38 1124.91 383.38" opacity="0.50"></path><path d="M1094.91 471.7C1076.03 490.34 1096.98 511.35 1151.26 534.5 1227.25 557.57 1305.48 582.62 1368.43 609.27 1404.4 635.53 1404.46 662.96 1369.66 690.97 1307.03 717.92 1228.56 744.61 1148.6 770.19 1079.31 793.56 1031.72 814.62 1010.86 832.34 1017.99 846.47 1048.42 856.01 1094.18 860.13 1149.06 859.84 1201.16 853.61 1242.54 841.33 1269.92 825.55 1277.61 804.91 1265.75 780.51 1236.18 756.17 1192 731.33 1138.28 708.19 1077.58 690.76 1016.2 679.22 958.07 675.77 903.51 682.81 856.73 700.31 818.31 728.66 787.05 767.13 763.63 814.12 746.48 867.15 734.96 922.53 727.13 976.87 721.12 1025.86 716.2 1079.06 701.32 1088.98 687.07 1042.3 676.57 995.95 662.15 942.38 643.51 886.98 624.87 837.02 602.46 797.04 576.64 770.61 551.01 760.36 522.38 765.98 491.5 785.92 461.61 818.91 430.63 859.86 399.96 904.32 372.16 949.73 346.88 990.09 326.1 1021.9 306.9 1048.81 319.86 1020.1 354.23 969.58 383.63 925.36 417.27 876.57 451.3 825.98 478.35 774.91 496.94 726.32 502.08 681.86 489.5 641.83 458.55 607.78 409.16 579.82 345.77 557.74 272.91 541.28 198.62 529.56 109.21 520.76 81.65 518.86 153.47 520.46 219.77 522.59 286.11 523.11 338.22 521.49 362.49 520.18 353.53 516.28 310.37 509.55 240.23 502.82 156.52 493.17 76.84 480.54 18.86 467.87 -3.96 452.25 14.91 433.62 70.6 414.98 149.9 393.76 234.02 370.12 304.66 346.45 346.98 320.32 353.76 291.9 324.43 263.48 268.06 232.85 198.3 200.34 127.95 168.15 73.6 134.52 45.36 100.09 47.03 66.91 79.3 33.96 135.75 2.28 208.27 -26.51 285.27 -52.45 356.24 -74.27 443.15 -99.28 348.37 -49.13 293.1 -7.4 264.3 21.17 247.28 49.21 242.61 74.02 248.73 91.41 266.1 100.82 292.28 100.08 326.15 87.24 364.84 62.68 405.72 26.79 449.68 -18.67 492.77 -71.16 533.55 -127.09 574.65 -182.06 612.29 -231.92 646.07 -272.1 679.46 -299.25 709.06 -310.35 734.87 -303.8 760.5 -281.07 782.67 -242.99 801.31 -193.02 819.95 -137.63 834.62 -82.16 845.3 -32.12 861.21 26.83 842.76 -65.13 826.11 -127.95 813.93 -183.22 817.67 -232.41 846.45 -219.77 879.85 -196.92 924.61 -164.62 980.08 -125.18 1041.75 -80.03 1107.91 -31.92 1173.33 16.83 1230.52 65.66 1275.41 111.9 1302.07 154.36 1307.48 193.3 1290.23 227.27 1251.8 256.3 1200.24 280.9 1141.29 301.07 1085.4 317.54 1045.58 330.43 1028.5 340.88 1040.5 349.81 1082.4 356.52 1148.88 362.94 1229.75 369.82 1342.66 379.17 1393.82 405.48 1308.45 424.08 1228.01 437.23 1150.6 453.06 1094.91 471.7Q1094.91 471.7 1094.91 471.7" opacity="0.37"></path><path d="M1064.93 541.25C1046 558.85 1062.64 577.82 1109.95 597.94 1178.96 617.92 1253.53 638.79 1318.55 660.14 1363.31 680.95 1377.89 701.7 1360.59 721.79 1315 740.64 1248.88 758.02 1173.53 773.19 1007.23 801.94 1142.34 759.86 1232.52 696.79 1219.95 661.72 1151.04 641.02 1053.86 648.83 943.5 694.04 846.8 773.21 772.29 874.58 740.65 926.35 714.17 974.93 691.8 1016.73 663.89 1058.59 618.68 1052.98 596.8 1004.9 582.32 960.09 566.42 909.24 548.82 856.97 531.21 809.55 512.32 770.8 492.51 743.82 473.05 731.02 453.37 732.35 434.32 746.82 416.66 773.71 400.97 808.99 388.48 849.04 378.91 891.94 374.13 932.38 375.26 967.11 388.76 1014.13 427.48 1016.05 483.57 975.47 526.48 902.11 544.85 810.8 511.27 718.63 420.18 633.02 287.98 565.01 160.19 515.78 94.88 483.33 123.07 463.65 233.69 449.85 323.46 443.63 382.32 429.16 319.28 418.48 247.46 411 167.71 401.23 95.22 388.96 44.43 376.74 26 361.89 44.93 344.28 96.76 326.68 170.51 306.74 250.46 284.67 321.03 262.66 368.86 238.64 386.26 212.92 370.81 187.49 327.92 160.7 267.54 133.05 199.57 106.24 138.76 79.25 95.62 52.83 82.93 5.61 171.71 -32.69 308.91 -54.5 435.94 -59.54 501.83 -42.08 500.94 -2.62 446.22 43.39 377.71 92.96 326.64 129.67 298.22 133.59 307.4 100.11 343.78 27.28 369.32 -20.33 397.93 -72.23 427.83 -125.07 459.97 -175.05 491.51 -218.73 521.32 -252.43 551.83 -273.7 579.73 -280.21 604.43 -270.91 629.25 -247.41 650.62 -210.45 668.22 -163.03 685.83 -110.76 699.25 -58.13 708.72 -9.83 726.03 57.32 734.52 -7.8 740.81 -65.23 765.44 -140.79 814.25 -188.4 896.94 -196.95 1002.26 -168.11 1121.33 -105.66 1222.19 -24.45 1269.23 66.73 1245.08 153.33 1154.71 227.64 1054.17 290.77 996.97 339.05 1035.47 376.16 1091.51 391.49 1163.78 405.38 1241.69 418.48 1337.65 436.25 1353.61 472.88 1265.2 493.65 1188.73 507.82 1116.76 523.64 1064.93 541.25Q1064.93 541.25 1064.93 541.25" opacity="0.40"></path><path d="M1034.93 573.85C1029.98 606.98 1133.11 640.2 1265.97 671.47 1344.7 700.61 1314.6 723.85 1199.12 737.26 1058.69 744.1 962.63 737.11 942.35 715.29 994.54 689.36 1078.58 655.27 1150.43 621.52 1190.49 604.1 1178.51 605.95 1125.74 636.36 1043.32 697.59 951.96 783.95 867.56 881.83 786.23 970.21 720.77 1029.51 669.58 1041.36 622.3 1004.74 583.24 925.58 550.1 826.97 504.14 724.2 467.39 798.38 493.89 908.4 520.86 965.29 557.65 986.13 589 968.7 590.7 918.71 555.1 844.69 471.61 760.95 356.33 674.23 233 596.59 146.3 532.7 132.08 480.72 198.42 442.02 314.57 412.37 405.75 390.35 417 370.49 325.48 348.59 179.82 328.5 69.98 302.67 74.93 269.54 191.22 236.4 336.33 197.52 414.35 155.12 381.45 114.53 270.87 74.11 159.52 38.7 107.6 10.92 149.01 -4.95 257.55 -4.04 390.19 8.76 494.78 38.83 546.53 82.12 542.68 122.43 501.89 157.16 451.71 172.65 399.68 155.59 370.75 105.04 367.2 23.86 379.54 -73.18 409.05 -166.54 445.96 -231.09 487.62 -250.07 527.25 -214.79 560.39 -133.03 593.53 -34.43 618.6 51.45 639.43 100.87 665.02 101.82 695.79 61.38 740.87 -2.7 801.85 -76.29 885.35 -132.93 988.45 -159.67 1089.71 -155.57 1178.07 -118.14 1225.35 -57.29 1217.04 19.89 1151.74 101.54 1053.6 178.55 979.56 251.44 967.87 313 1044.08 363.59 1179.72 407.6 1309.16 444.65 1354.85 478 1289.62 509.22 1151.22 540.71 1034.93 573.85Q1034.93 573.85 1034.93 573.85" opacity="0.33"></path><path d="M1004.93 560.96C996.49 592.02 1085.75 618.39 1211.25 638.88 1303.16 657.78 1304.71 668.06 1220.42 667.8 1090.52 663.98 973.67 648.85 910.65 624.15 914.25 601.58 967.87 578.05 1037.96 561.84 1105.6 564.7 1140.09 588.28 1137.1 637.31 1102.98 709.15 1044.92 797.16 978.16 887.48 903.2 962.38 834.71 1006.7 777.88 1007.23 721.65 966.22 677.64 889.52 646.57 796.97 607.18 697.38 600.73 745.81 627.84 847.01 640.76 909.18 647.67 944.57 633.91 947.74 589.01 921.58 509.92 868.88 401.57 800.43 290.76 721.94 200.31 644.32 164.36 574.19 195.03 510.03 284.02 457 391.15 413.78 452.66 376.75 433.43 345.18 329.53 315.94 192.05 288.57 96.49 259.98 104.93 228.92 212 197.85 350.24 165.77 438.05 134.56 430.92 105.21 343.64 80.27 233.65 63.46 153.82 52.84 149.41 54.71 216.82 70.98 330.7 93.23 449.06 126.25 539 164.03 587.96 191.77 593.89 207.64 573.01 201.46 531.86 165.95 493.95 102.7 470.07 17.77 452.06 -74.02 452.04 -156.05 466.35 -208 484.48 -218.21 510.58 -180.72 541.64 -103.03 572.71 -10.49 607.28 72.51 647.73 125.52 692.01 136.98 748.54 110.35 820.39 58.23 898.11 -9.31 987.18 -69.46 1076.21 -108.96 1144.97 -125.65 1183.64 -112.4 1175.39 -74.54 1126.17 -17.61 1044.65 50.5 963.12 120.96 928.05 193.53 960.33 259.83 1062.92 317.48 1195.69 371.58 1300.65 417.81 1319.77 457.5 1243.95 495.6 1112 529.89 1004.93 560.96Q1004.93 560.96 1004.93 560.96" opacity="0.40"></path><path d="M974.93 505.95C963.48 534.95 1039.24 556.07 1155.03 569.04 1254.67 581.22 1283.54 584.11 1232.84 577.69 1125.31 570.8 1004.65 556.42 912.22 537.98 869.19 526.08 878.96 518.74 922.83 522.85 987.56 545.48 1043.38 587.38 1076.31 649.54 1088.91 726.18 1074.59 810.7 1042.18 890.18 996.74 950.6 946.58 980.62 899.73 971.3 850.62 927.11 810.14 853.4 781.15 766.97 744.08 671.07 721.32 695.1 715.22 784.33 697.38 847.39 663.95 892.45 606.66 912.29 529.04 908.09 431.6 877.95 328.87 829.02 246.99 766.04 202.84 697.23 215.68 629.7 277.92 562.51 372.57 502.6 458.85 451.15 488.3 403.45 442.93 362.64 332.09 327.2 205.11 293.23 123.48 262.05 134.93 233.05 232.92 204.06 363.15 178.63 457.51 157.92 473.56 138.67 412.47 126.74 313.65 124.19 219.19 125.39 176.93 137.55 199.3 160.05 276.56 182.89 382.89 210.08 487.07 235.06 573.37 245.99 625.75 241.74 647.34 215.76 642.27 165.73 624.33 94.68 606.24 10.36 577.82 -108.37 585.9 -165.98 623.07 -73.03 652.07 13.39 692.33 92.98 743.62 148.37 796.04 168.89 860.29 155.38 933.2 116.22 1001.54 57.99 1067.23 -0.53 1116.99 -46.97 1140.08 -78.95 1129.33 -86.48 1081.04 -71.1 1014.86 -37.21 942.91 11.74 895.84 68.34 903.66 131.46 971.93 193.59 1087.64 250.73 1207.71 307.39 1285.3 357.25 1280.44 399.75 1197.28 441.46 1072.92 476.96 974.93 505.95Q974.93 505.95 974.93 505.95" opacity="0.93"></path><path d="M944.93 423.23C930.97 450.15 993.76 468.26 1097.99 477.99 1200.11 487.73 1250.6 489.41 1232.61 484.42 1155.35 481.38 1046.58 475.03 941.96 469.37 864.22 472.34 829.55 483.25 833.57 506.89 870.03 546.04 918.13 600.98 961.57 669.97 1000.63 745.72 1020.28 822.39 1021.31 888.71 1011.71 934.39 989.93 951.23 962.35 933.63 931.54 887.46 901.15 817.25 874.22 736.97 847.3 667.91 825.12 622.6 805.15 607.8 781.96 625.87 754.75 667.71 717.69 721.76 670.01 781.8 606.02 831.54 525.46 863.22 440.53 877.19 353.77 868.22 282.02 840.14 242.72 796.97 245.46 743.48 295.17 686.13 371.76 624.82 456.38 566.35 513.91 513.55 512.16 461.86 446.35 416.64 333.84 378.03 219.22 340.24 150.97 307.79 164.93 280.86 254.02 253.94 375.27 233.81 472.99 220.83 508.75 208.66 474.62 204.91 394.6 209.94 265.09 223.14 282.8 273.29 413 288.6 510.73 281.39 592.37 258.44 650.9 216.43 688.18 156.73 705.77 82.84 712.64 3.06 708.11 -99.29 722.4 -132.02 756.46 -43.04 783.39 37.23 821.68 112.9 869.06 169.47 914.96 197.46 966.19 195.95 1016.26 170.02 1056.04 123.43 1082.79 70.9 1087.01 23.18 1069.98 -17.76 1026.98 -40.78 964.54 -44.65 906.81 -33 864.39 -5.25 859.89 33.26 906.12 80.42 997.86 131.1 1113.3 180.8 1213.06 232.45 1262.51 279.75 1237.14 320.79 1149.81 361.83 1034.02 396.3 944.93 423.23Q944.93 423.23 944.93 423.23" opacity="0.56"></path><path d="M914.93 334.42C898.97 359.27 949.48 376.56 1040.82 387.09 1173.4 401.04 1131.22 414.72 989.43 427.67 895.03 446.23 826.8 473.89 790.81 513.27 786.42 563.71 804.89 625.36 833.37 694.83 870.92 764.7 901.58 830.17 920.19 882.02 934.85 913.39 936.3 918.52 926.68 894.32 914.78 847.3 895.59 781.06 870.74 706.97 845.89 642.47 816.54 597.4 781.57 577.68 744.32 586.15 697.67 616.61 639.93 660.69 578.25 714.45 506.66 764.22 430.81 802.53 336.95 833.9 304.49 789.75 392.39 730.23 465.91 681.72 528.42 631.94 553.77 584.48 524.57 535.92 444.81 492.01 335.45 454.14 234.52 416.39 178.97 384.69 194.93 359.84 275.31 334.99 386.78 318.15 484.82 309.03 536.24 300.03 527.85 298.73 471.55 304.22 386.4 308.61 308.08 317.46 260.33 327.67 250.43 331.49 283.08 330.6 345.64 320.41 428.24 296.51 513.37 258.44 589.16 205.5 655.82 141.31 705.68 69.26 741.41 -2.71 767.38 -65.01 786.52 -109.62 804.22 -127.68 819.28 -117.56 838.14 -77.54 862.99 -13.04 887.84 61.04 917.52 132.32 949.33 188.93 978.5 222.73 1004.57 231.76 1021.67 218.61 1029.01 184.97 1020.08 141.8 991.72 97.81 954.24 54.21 904.79 22.02 854.76 4.15 824.77 -2.64 821.59 5.37 857.37 25.11 930.99 53.46 1031.6 88.4 1134.97 125.9 1209.48 166.69 1232.02 206.22 1190.19 241.98 1101.75 278.32 995.31 309.57 914.93 334.42Q914.93 334.42 914.93 334.42" opacity="0.46"></path><path d="M885.27 262.6C867.38 285.39 906.1 303.42 983.53 317.5 1076.74 332.44 1150.92 345.15 1185.25 357.59 1174.68 373.56 1121.13 392.61 1041.45 417.26 949.85 448.88 866.06 488.96 801.52 538.17 758.75 593.65 739.58 655.58 737.48 719.85 750.65 779.9 768.36 832.01 783.41 869.1 801.15 887.24 810.24 882.41 808.84 853.3 807.02 806.54 794.85 744.69 772.07 676.81 749.29 617.01 716.97 572.84 675.83 549.3 634.27 549.34 583.73 568.94 526.51 602.34 471.98 647.39 416.75 693.14 368.47 733.04 335.45 767.52 321.92 788.59 334.83 795.6 369.51 791.9 426.29 775.85 494.16 750.81 550.13 718.83 583.24 682.55 577.12 645.36 526.09 605.75 438.95 568.19 336.93 534.7 250.72 500.83 207.38 471.94 225.27 449.16 297.47 426.38 398.64 410.78 494.03 401.69 556.34 392.21 570.33 388.32 539.37 388.45 473.46 386.16 398.52 384.93 336.14 381.8 294.98 371.73 288.05 355.07 312.16 328.91 361.48 292.04 426.37 243.96 495.29 185.76 567.24 122.14 631.23 55.95 684.44 -5.79 732.74 -55.89 771.37 -88.45 802.57 -97.28 831.66 -82.53 857.02 -42.98 879.8 16.81 902.58 84.69 921.71 151.16 935.59 206.71 948.75 253.51 914.38 224.73 864.31 172.56 830.49 132.02 798.31 97.1 778.85 71.48 784.6 52.13 818.54 44.75 883.42 48.25 969.53 58.71 1064.9 77.17 1147.5 100.69 1195.17 127.73 1194.14 156.46 1140.63 184.49 1054.03 213.37 957.47 239.82 885.27 262.6Q885.27 262.6 885.27 262.6" opacity="0.66"></path><path d="M854.93 227.01C836.49 247.72 865.22 267.1 928.9 285.64 1012.22 305.02 1088.04 325.14 1137.69 347.38 1154.45 372.52 1132.86 402.13 1081.31 437.44 1008.63 477.25 929.11 523.68 854.89 575.97 789.28 630.23 740.28 686.71 707.43 741.33 684 807.91 678.71 849.93 674.21 811.2 670.49 765.7 658.95 708.61 638.24 646.97 617.53 592.02 588.63 549.37 553.29 523.13 519.03 516.07 480.76 525.74 442.49 548.4 410.26 583.23 384.75 621.85 371.97 658.92 372.89 695.22 392.16 723 430.62 740.5 477.7 751.01 532.66 750.79 583.78 741.55 613.77 726.33 616.78 705.08 584.84 680.46 520.01 653.04 432.4 625.02 341.09 598.41 269.42 571.14 236.49 546.6 254.93 525.89 318.59 505.18 408.86 489.27 499.41 477.49 585.11 460.21 524.57 429.21 432.43 406.09 375.49 383.4 339.73 353.89 328.52 316.24 338.82 271.59 369.64 219.26 413.17 161.39 467.11 102.76 522.9 45.56 574.98 -4.44 627.82 -42.28 673.4 -63.74 710.52 -64.67 746.98 -46.42 775.76 -7.97 796.47 46.97 817.18 108.61 828.84 169.9 831.44 223.39 829.43 276 781.5 279.53 748.64 243.8 737.03 210.75 735.94 178.82 752.79 151.7 791.13 126.56 851.45 109.86 929.96 101.98 1013.65 98.59 1092.26 103.08 1148.55 113.84 1169.56 127.49 1148.51 145.04 1087.22 164.72 1004.67 185.23 918.59 206.3 854.93 227.01Q854.93 227.01 854.93 227.01" opacity="0.77"></path><path d="M825.12 236.42C806.03 255.06 825.32 275.38 875.16 297.47 946.08 320.15 1017.99 345.71 1075.57 374.68 1112.54 405.46 1119.55 440.87 1098.71 480.98 1054.74 523.04 995.17 569.34 929.8 618.3 861.58 666.03 799.86 712.75 748.21 754.87 703.94 788.99 670.24 812.93 644.87 823.29 625.01 820.19 609.06 801.45 594.1 767.57 580.67 724.28 565.25 672.28 546.62 616.88 527.98 566.92 507 526.38 485.27 498.56 456.1 486.36 429.25 538.14 446.29 583.71 469.21 616.98 504.17 645.86 547.97 668.17 607.64 692.4 640.51 695.3 578 678.83 506.76 663.84 424.24 646.12 346.13 627.19 289.1 607.59 266.03 588.07 285.12 569.43 340.98 550.79 420.29 533.92 503.7 518.36 575.08 502.13 620.99 485.95 636.41 468.64 620.82 448.91 582.73 426 533.42 398.63 477.57 367.08 429.81 329.65 396.54 286.33 375.92 239.59 373.34 188.61 385.6 135.93 409.18 85.69 441.09 39.51 476.15 1.83 515.39 -24.34 552.68 -35.97 585.03 -30.46 618.02 -9.83 644.53 26.92 663.17 76.88 681.81 132.28 691.7 188.05 693.86 238.54 688.97 309.86 718.66 272.07 778.38 236.46 836.08 211.93 905.94 192.39 981.2 179.05 1077.32 165.32 1114.57 171.99 1032.73 188.64 956.51 201.7 880.98 217.78 825.12 236.42Q825.12 236.42 825.12 236.42" opacity="0.70"></path><path d="M794.9 288.81C789.98 321.95 886.35 369.87 1003.2 431.23 1081.37 495.31 1070.42 573.98 995.53 657.19 884.14 728.27 778.37 779.5 700.21 789.88 632.59 759.75 585.54 685.56 552.4 586.96 519.27 505.2 503.19 460.17 513.37 456.61 534.11 492.55 588.17 542.68 656.12 585.82 687.58 626.71 663.38 643.9 560.92 638.66 419.78 627.06 309.98 601.95 314.9 568.82 431.17 535.68 576.7 497.65 660.86 451.82 651.94 399.64 579.35 330.74 502.61 246.41 438.16 159.84 422.42 74.56 442.57 14.33 480.45 -6.38 524.43 25.2 557.56 106.96 590.71 205.56 609.87 293.18 629.41 347.6 666.67 361.5 734.12 345.43 842 317.78 1016.04 264.52 977.25 248.06 794.92 288.8Q794.9 288.81 794.9 288.81" opacity="0.19"></path><path d="M764.93 370.15C753.48 399.14 823.59 444.36 923.84 501.5 1015.93 557.97 1049.88 622.67 1026.84 684.38 962.83 731.63 881.06 757.74 808.44 749.56 734.6 712.55 680.9 643.4 651.91 556.97 622.14 459.89 685.59 452.46 729.86 501.19 714.89 538.92 650.19 561.75 536.84 565.98 415.34 567.39 333.48 552.9 344.93 523.91 442.91 494.92 573.17 454.16 669.27 402.5 701.41 348.02 673.27 279.94 620.08 204.21 552.8 133.5 509.77 70.68 497.88 33.36 496.2 28.01 514.18 63.52 543.17 136.97 572.16 223.4 609.43 304.31 661.36 362.57 723.5 392 811.78 396.64 917.06 387.39 1008.25 363.69 1067.15 344.24 1056.26 338.02 981.42 331.13 862.91 341.15 764.93 370.15Q764.93 370.15 764.93 370.15" opacity="0.53"></path><path d="M734.91 459.33C718.97 484.18 765.02 521.91 842.72 567.39 931.09 610.47 989.53 655.74 1007.33 693.61 994.55 718.45 954.98 723.96 908.66 702.96 855.04 663.27 811.15 601.07 786.29 526.98 761.44 462.48 757.98 415.62 768.53 391.11 771.78 390.42 772.56 404.32 752.77 422.86 702.39 449.58 617.6 468.68 511.01 474.56 415.09 480.33 358.97 471.46 374.91 446.61 455.28 421.75 566.61 383.27 663.44 334.43 723.29 285.48 737.05 227.59 720.09 168.3 659.25 97.06 601.91 84.08 628.06 166.98 652.92 241.07 697.68 313.34 759.85 371.25 823.23 410.47 900.46 431.32 974.66 439.05 1024.18 433.76 1036.78 427.27 995.15 427.26 916.54 424.85 815.28 434.47 734.91 459.33Q734.91 459.33 734.91 459.33" opacity="0.63"></path><path d="M704.93 532.96C686.49 553.68 711.85 581.29 764.73 611.58 836.11 639.25 897.78 664.52 936.47 680.84 960.09 687.62 959.69 678.65 944.32 650.79 921.99 612.24 896.9 558.61 876.19 496.97 855.48 442.02 841.11 398.05 827.55 368.92 807.03 355.86 775.1 354.17 724.34 358.32 658.5 370.52 574.86 380.17 488.31 382.12 420.25 385.38 386.49 377.8 404.93 357.09 468.59 336.38 558.71 304.5 646.56 265.35 718.26 227.5 761.42 185.53 778.69 146.18 767.44 104.75 740.45 124.23 761.96 196.97 782.67 258.61 820.54 320.63 869.02 374.36 913.53 417.4 959.01 448.34 990.82 468.7 1000.7 479.53 979.5 486.59 922.98 494.8 850.31 500.4 768.59 512.25 704.93 532.96Q704.93 532.96 704.93 532.96" opacity="0.13"></path><path d="M674.91 571.83C669.99 604.97 752.88 637.98 829.39 644.95 895.24 629.73 901.48 565.58 868.35 466.98 835.21 385.21 768.97 334.22 659.68 313.33 539.74 316.21 429.99 311.95 434.91 278.82 551.2 245.68 697.39 189.94 784.52 143.63 821.33 121.08 832.63 145.21 865.77 226.98 898.9 325.58 947.6 416.6 954.23 475.24 910.54 511.7 791.22 538.69 674.93 571.82Q674.91 571.83 674.91 571.83" opacity="0.35"></path><path d="M644.91 565.73C628.97 590.58 666.12 600.88 712.1 587.88 769.4 565.14 792.28 511.07 767.43 436.98 742.58 372.48 674.7 322.08 584.82 291.03 506.26 273.5 448.97 257.09 464.91 232.24 545.28 207.38 656.29 178.8 742.27 163.75 811.07 162.23 853.12 192.48 877.98 256.98 902.83 331.07 905.77 405.29 869.54 460.6 816.14 506.17 725.28 540.88 644.91 565.73Q644.91 565.73 644.91 565.73" opacity="0.47"></path><path d="M614.91 516.27C609.99 549.4 666.26 505.57 633.13 406.98 599.99 325.21 489.99 262.68 494.91 229.55 611.2 196.41 758.26 205.21 791.4 286.98 824.53 385.57 731.2 483.13 614.91 516.27Q614.91 516.27 614.91 516.27" opacity="0.47"></path></g></svg>