<!--?xml version="1.0" standalone="no"?-->
              <svg id="sw-js-blob-svg" viewBox="0 0 100 100" xmlns="http://www.w3.org/2000/svg" version="1.1">
                    <defs> 
                        <linearGradient id="sw-gradient" x1="0" x2="1" y1="1" y2="0">
                            <stop id="stop1" stop-color="rgba(248, 117, 55, 1)" offset="0%"></stop>
                            <stop id="stop2" stop-color="rgba(251, 168, 31, 1)" offset="100%"></stop>
                        </linearGradient>
                    </defs>
                <path fill="url(#sw-gradient)" d="M21.5,-35.2C27.9,-33.6,33.2,-27.9,32.9,-21.4C32.6,-14.8,26.8,-7.4,25.5,-0.8C24.2,5.9,27.4,11.8,25.9,15.2C24.4,18.7,18.1,19.6,13,18.7C7.9,17.9,3.9,15.3,-1.5,18C-7,20.6,-14,28.5,-20.6,30.2C-27.1,31.9,-33.3,27.3,-33.3,21.2C-33.3,15.2,-27.2,7.6,-25.7,0.9C-24.2,-5.8,-27.2,-11.6,-27,-17.5C-26.9,-23.3,-23.5,-29.1,-18.5,-31.5C-13.5,-33.9,-6.7,-32.7,0.4,-33.5C7.6,-34.2,15.1,-36.7,21.5,-35.2Z" width="100%" height="100%" transform="translate(50 50)" stroke-width="0" style="transition: all 0.3s ease 0s;" stroke="url(#sw-gradient)"></path>
              </svg>